  0
SECTION
  2
HEADER
  9
$ANGBASE
  50
0.0
  9
$ANGDIR
  70
  1
  9
$MEASUREMENT
  70
0
  0
ENDSEC
  0
SECTION
  2
TABLES
  0
TABLE
  2
LTYPE
  70
1
  0
LTYPE
  2
CONTINUOUS
  70
0
  3
Solid line
  72
65
  73
0
  40
0.0
  0
ENDTAB
  0
TABLE
  2
STYLE
  70
4
  0
STYLE
  2
KICAD
  70
0
  40
0
  41
1
  42
1
  50
0
  71
0
  3
isocp.shx
  0
STYLE
  2
KICADB
  70
0
  40
0
  41
1
  42
1
  50
0
  71
0
  3
isocp.shx
  0
STYLE
  2
KICADI
  70
0
  40
0
  41
1
  42
1
  50
15
  71
0
  3
isocp.shx
  0
STYLE
  2
KICADBI
  70
0
  40
0
  41
1
  42
1
  50
15
  71
0
  3
isocp.shx
  0
ENDTAB
  0
TABLE
  2
LAYER
  70
30
  0
LAYER
  2
BLACK
  70
0
  62
7
  6
CONTINUOUS
  0
LAYER
  2
GRAY1
  70
0
  62
251
  6
CONTINUOUS
  0
LAYER
  2
GRAY2
  70
0
  62
8
  6
CONTINUOUS
  0
LAYER
  2
GRAY3
  70
0
  62
9
  6
CONTINUOUS
  0
LAYER
  2
WHITE
  70
0
  62
7
  6
CONTINUOUS
  0
LAYER
  2
LYELLOW
  70
0
  62
51
  6
CONTINUOUS
  0
LAYER
  2
BLUE1
  70
0
  62
178
  6
CONTINUOUS
  0
LAYER
  2
GREEN1
  70
0
  62
98
  6
CONTINUOUS
  0
LAYER
  2
CYAN1
  70
0
  62
138
  6
CONTINUOUS
  0
LAYER
  2
RED1
  70
0
  62
18
  6
CONTINUOUS
  0
LAYER
  2
MAGENTA1
  70
0
  62
228
  6
CONTINUOUS
  0
LAYER
  2
BROWN1
  70
0
  62
58
  6
CONTINUOUS
  0
LAYER
  2
BLUE2
  70
0
  62
5
  6
CONTINUOUS
  0
LAYER
  2
GREEN2
  70
0
  62
3
  6
CONTINUOUS
  0
LAYER
  2
CYAN2
  70
0
  62
4
  6
CONTINUOUS
  0
LAYER
  2
RED2
  70
0
  62
1
  6
CONTINUOUS
  0
LAYER
  2
MAGENTA2
  70
0
  62
6
  6
CONTINUOUS
  0
LAYER
  2
BROWN2
  70
0
  62
54
  6
CONTINUOUS
  0
LAYER
  2
BLUE3
  70
0
  62
171
  6
CONTINUOUS
  0
LAYER
  2
GREEN3
  70
0
  62
91
  6
CONTINUOUS
  0
LAYER
  2
CYAN3
  70
0
  62
131
  6
CONTINUOUS
  0
LAYER
  2
RED3
  70
0
  62
11
  6
CONTINUOUS
  0
LAYER
  2
MAGENTA3
  70
0
  62
221
  6
CONTINUOUS
  0
LAYER
  2
YELLOW3
  70
0
  62
2
  6
CONTINUOUS
  0
LAYER
  2
BLUE4
  70
0
  62
5
  6
CONTINUOUS
  0
LAYER
  2
GREEN4
  70
0
  62
3
  6
CONTINUOUS
  0
LAYER
  2
CYAN4
  70
0
  62
4
  6
CONTINUOUS
  0
LAYER
  2
RED4
  70
0
  62
1
  6
CONTINUOUS
  0
LAYER
  2
MAGENTA4
  70
0
  62
6
  6
CONTINUOUS
  0
LAYER
  2
YELLOW4
  70
0
  62
2
  6
CONTINUOUS
  0
ENDTAB
  0
ENDSEC
  0
SECTION
  2
ENTITIES
0
LINE
8
Black
10
143.516
20
-115.877
11
143.523
21
-115.877
0
LINE
8
Black
10
143.523
20
-115.877
11
143.529
21
-115.879
0
LINE
8
Black
10
143.529
20
-115.879
11
143.536
21
-115.881
0
LINE
8
Black
10
143.536
20
-115.881
11
143.541
21
-115.884
0
LINE
8
Black
10
143.541
20
-115.884
11
143.548
21
-115.886
0
LINE
8
Black
10
143.548
20
-115.886
11
143.553
21
-115.89
0
LINE
8
Black
10
143.553
20
-115.89
11
143.558
21
-115.894
0
LINE
8
Black
10
143.558
20
-115.894
11
143.562
21
-115.899
0
LINE
8
Black
10
143.562
20
-115.899
11
143.567
21
-115.903
0
LINE
8
Black
10
143.567
20
-115.903
11
143.571
21
-115.908
0
LINE
8
Black
10
143.571
20
-115.908
11
143.575
21
-115.914
0
LINE
8
Black
10
143.575
20
-115.914
11
143.577
21
-115.92
0
LINE
8
Black
10
143.577
20
-115.92
11
143.58
21
-115.925
0
LINE
8
Black
10
143.58
20
-115.925
11
143.582
21
-115.932
0
LINE
8
Black
10
143.582
20
-115.932
11
143.584
21
-115.938
0
LINE
8
Black
10
143.584
20
-115.938
11
143.584
21
-115.945
0
LINE
8
Black
10
143.584
20
-115.945
11
143.585
21
-115.951
0
LINE
8
Black
10
143.585
20
-115.951
11
143.585
21
-126.746
0
LINE
8
Black
10
143.585
20
-126.746
11
143.584
21
-126.752
0
LINE
8
Black
10
143.584
20
-126.752
11
143.584
21
-126.759
0
LINE
8
Black
10
143.584
20
-126.759
11
143.582
21
-126.765
0
LINE
8
Black
10
143.582
20
-126.765
11
143.58
21
-126.772
0
LINE
8
Black
10
143.58
20
-126.772
11
143.577
21
-126.777
0
LINE
8
Black
10
143.577
20
-126.777
11
143.575
21
-126.784
0
LINE
8
Black
10
143.575
20
-126.784
11
143.571
21
-126.789
0
LINE
8
Black
10
143.571
20
-126.789
11
143.567
21
-126.794
0
LINE
8
Black
10
143.567
20
-126.794
11
143.562
21
-126.798
0
LINE
8
Black
10
143.562
20
-126.798
11
143.558
21
-126.803
0
LINE
8
Black
10
143.558
20
-126.803
11
143.553
21
-126.807
0
LINE
8
Black
10
143.553
20
-126.807
11
143.548
21
-126.811
0
LINE
8
Black
10
143.548
20
-126.811
11
143.541
21
-126.813
0
LINE
8
Black
10
143.541
20
-126.813
11
143.536
21
-126.816
0
LINE
8
Black
10
143.536
20
-126.816
11
143.529
21
-126.818
0
LINE
8
Black
10
143.529
20
-126.818
11
143.523
21
-126.82
0
LINE
8
Black
10
143.523
20
-126.82
11
143.516
21
-126.82
0
LINE
8
Black
10
143.516
20
-126.82
11
143.51
21
-126.821
0
LINE
8
Black
10
143.51
20
-126.821
11
127.889
21
-126.821
0
LINE
8
Black
10
127.889
20
-126.821
11
127.883
21
-126.82
0
LINE
8
Black
10
127.883
20
-126.82
11
127.876
21
-126.82
0
LINE
8
Black
10
127.876
20
-126.82
11
127.87
21
-126.818
0
LINE
8
Black
10
127.87
20
-126.818
11
127.863
21
-126.816
0
LINE
8
Black
10
127.863
20
-126.816
11
127.858
21
-126.813
0
LINE
8
Black
10
127.858
20
-126.813
11
127.852
21
-126.811
0
LINE
8
Black
10
127.852
20
-126.811
11
127.846
21
-126.807
0
LINE
8
Black
10
127.846
20
-126.807
11
127.841
21
-126.803
0
LINE
8
Black
10
127.841
20
-126.803
11
127.837
21
-126.798
0
LINE
8
Black
10
127.837
20
-126.798
11
127.832
21
-126.794
0
LINE
8
Black
10
127.832
20
-126.794
11
127.828
21
-126.789
0
LINE
8
Black
10
127.828
20
-126.789
11
127.824
21
-126.784
0
LINE
8
Black
10
127.824
20
-126.784
11
127.822
21
-126.777
0
LINE
8
Black
10
127.822
20
-126.777
11
127.819
21
-126.772
0
LINE
8
Black
10
127.819
20
-126.772
11
127.817
21
-126.765
0
LINE
8
Black
10
127.817
20
-126.765
11
127.815
21
-126.759
0
LINE
8
Black
10
127.815
20
-126.759
11
127.815
21
-126.752
0
LINE
8
Black
10
127.815
20
-126.752
11
127.814
21
-126.746
0
LINE
8
Black
10
127.814
20
-126.746
11
127.814
21
-115.951
0
LINE
8
Black
10
127.814
20
-115.951
11
127.815
21
-115.945
0
LINE
8
Black
10
127.815
20
-115.945
11
127.815
21
-115.938
0
LINE
8
Black
10
127.815
20
-115.938
11
127.817
21
-115.932
0
LINE
8
Black
10
127.817
20
-115.932
11
127.819
21
-115.925
0
LINE
8
Black
10
127.819
20
-115.925
11
127.822
21
-115.92
0
LINE
8
Black
10
127.822
20
-115.92
11
127.824
21
-115.914
0
LINE
8
Black
10
127.824
20
-115.914
11
127.828
21
-115.908
0
LINE
8
Black
10
127.828
20
-115.908
11
127.832
21
-115.903
0
LINE
8
Black
10
127.832
20
-115.903
11
127.837
21
-115.899
0
LINE
8
Black
10
127.837
20
-115.899
11
127.841
21
-115.894
0
LINE
8
Black
10
127.841
20
-115.894
11
127.846
21
-115.89
0
LINE
8
Black
10
127.846
20
-115.89
11
127.852
21
-115.886
0
LINE
8
Black
10
127.852
20
-115.886
11
127.858
21
-115.884
0
LINE
8
Black
10
127.858
20
-115.884
11
127.863
21
-115.881
0
LINE
8
Black
10
127.863
20
-115.881
11
127.87
21
-115.879
0
LINE
8
Black
10
127.87
20
-115.879
11
127.876
21
-115.877
0
LINE
8
Black
10
127.876
20
-115.877
11
127.883
21
-115.877
0
LINE
8
Black
10
127.883
20
-115.877
11
127.889
21
-115.876
0
LINE
8
Black
10
127.889
20
-115.876
11
143.51
21
-115.876
0
LINE
8
Black
10
143.51
20
-115.876
11
143.516
21
-115.877
0
LINE
8
Black
10
127.964
20
-116.026
11
127.964
21
-126.671
0
LINE
8
Black
10
127.964
20
-126.671
11
143.435
21
-126.671
0
LINE
8
Black
10
143.435
20
-126.671
11
143.435
21
-116.026
0
LINE
8
Black
10
143.435
20
-116.026
11
127.964
21
-116.026
0
LINE
8
Black
10
124.593
20
-102.669
11
124.6
21
-102.669
0
LINE
8
Black
10
124.6
20
-102.669
11
124.606
21
-102.671
0
LINE
8
Black
10
124.606
20
-102.671
11
124.613
21
-102.673
0
LINE
8
Black
10
124.613
20
-102.673
11
124.618
21
-102.676
0
LINE
8
Black
10
124.618
20
-102.676
11
124.625
21
-102.678
0
LINE
8
Black
10
124.625
20
-102.678
11
124.63
21
-102.682
0
LINE
8
Black
10
124.63
20
-102.682
11
124.635
21
-102.686
0
LINE
8
Black
10
124.635
20
-102.686
11
124.639
21
-102.691
0
LINE
8
Black
10
124.639
20
-102.691
11
124.644
21
-102.695
0
LINE
8
Black
10
124.644
20
-102.695
11
124.648
21
-102.7
0
LINE
8
Black
10
124.648
20
-102.7
11
124.652
21
-102.706
0
LINE
8
Black
10
124.652
20
-102.706
11
124.654
21
-102.712
0
LINE
8
Black
10
124.654
20
-102.712
11
124.657
21
-102.717
0
LINE
8
Black
10
124.657
20
-102.717
11
124.659
21
-102.724
0
LINE
8
Black
10
124.659
20
-102.724
11
124.661
21
-102.73
0
LINE
8
Black
10
124.661
20
-102.73
11
124.661
21
-102.737
0
LINE
8
Black
10
124.661
20
-102.737
11
124.662
21
-102.743
0
LINE
8
Black
10
124.662
20
-102.743
11
124.662
21
-118.618
0
LINE
8
Black
10
124.662
20
-118.618
11
124.661
21
-118.624
0
LINE
8
Black
10
124.661
20
-118.624
11
124.661
21
-118.631
0
LINE
8
Black
10
124.661
20
-118.631
11
124.659
21
-118.637
0
LINE
8
Black
10
124.659
20
-118.637
11
124.657
21
-118.644
0
LINE
8
Black
10
124.657
20
-118.644
11
124.654
21
-118.649
0
LINE
8
Black
10
124.654
20
-118.649
11
124.652
21
-118.656
0
LINE
8
Black
10
124.652
20
-118.656
11
124.648
21
-118.661
0
LINE
8
Black
10
124.648
20
-118.661
11
124.644
21
-118.666
0
LINE
8
Black
10
124.644
20
-118.666
11
124.639
21
-118.67
0
LINE
8
Black
10
124.639
20
-118.67
11
124.635
21
-118.675
0
LINE
8
Black
10
124.635
20
-118.675
11
124.63
21
-118.679
0
LINE
8
Black
10
124.63
20
-118.679
11
124.625
21
-118.683
0
LINE
8
Black
10
124.625
20
-118.683
11
124.618
21
-118.685
0
LINE
8
Black
10
124.618
20
-118.685
11
124.613
21
-118.688
0
LINE
8
Black
10
124.613
20
-118.688
11
124.606
21
-118.69
0
LINE
8
Black
10
124.606
20
-118.69
11
124.6
21
-118.692
0
LINE
8
Black
10
124.6
20
-118.692
11
124.593
21
-118.692
0
LINE
8
Black
10
124.593
20
-118.692
11
124.587
21
-118.693
0
LINE
8
Black
10
124.587
20
-118.693
11
105.41
21
-118.693
0
LINE
8
Black
10
105.41
20
-118.693
11
105.404
21
-118.692
0
LINE
8
Black
10
105.404
20
-118.692
11
105.397
21
-118.692
0
LINE
8
Black
10
105.397
20
-118.692
11
105.391
21
-118.69
0
LINE
8
Black
10
105.391
20
-118.69
11
105.384
21
-118.688
0
LINE
8
Black
10
105.384
20
-118.688
11
105.379
21
-118.685
0
LINE
8
Black
10
105.379
20
-118.685
11
105.373
21
-118.683
0
LINE
8
Black
10
105.373
20
-118.683
11
105.367
21
-118.679
0
LINE
8
Black
10
105.367
20
-118.679
11
105.362
21
-118.675
0
LINE
8
Black
10
105.362
20
-118.675
11
105.358
21
-118.67
0
LINE
8
Black
10
105.358
20
-118.67
11
105.353
21
-118.666
0
LINE
8
Black
10
105.353
20
-118.666
11
105.349
21
-118.661
0
LINE
8
Black
10
105.349
20
-118.661
11
105.345
21
-118.656
0
LINE
8
Black
10
105.345
20
-118.656
11
105.343
21
-118.649
0
LINE
8
Black
10
105.343
20
-118.649
11
105.34
21
-118.644
0
LINE
8
Black
10
105.34
20
-118.644
11
105.338
21
-118.637
0
LINE
8
Black
10
105.338
20
-118.637
11
105.336
21
-118.631
0
LINE
8
Black
10
105.336
20
-118.631
11
105.336
21
-118.624
0
LINE
8
Black
10
105.336
20
-118.624
11
105.335
21
-118.618
0
LINE
8
Black
10
105.335
20
-118.618
11
105.335
21
-102.743
0
LINE
8
Black
10
105.335
20
-102.743
11
105.336
21
-102.737
0
LINE
8
Black
10
105.336
20
-102.737
11
105.336
21
-102.73
0
LINE
8
Black
10
105.336
20
-102.73
11
105.338
21
-102.724
0
LINE
8
Black
10
105.338
20
-102.724
11
105.34
21
-102.717
0
LINE
8
Black
10
105.34
20
-102.717
11
105.343
21
-102.712
0
LINE
8
Black
10
105.343
20
-102.712
11
105.345
21
-102.706
0
LINE
8
Black
10
105.345
20
-102.706
11
105.349
21
-102.7
0
LINE
8
Black
10
105.349
20
-102.7
11
105.353
21
-102.695
0
LINE
8
Black
10
105.353
20
-102.695
11
105.358
21
-102.691
0
LINE
8
Black
10
105.358
20
-102.691
11
105.362
21
-102.686
0
LINE
8
Black
10
105.362
20
-102.686
11
105.367
21
-102.682
0
LINE
8
Black
10
105.367
20
-102.682
11
105.373
21
-102.678
0
LINE
8
Black
10
105.373
20
-102.678
11
105.379
21
-102.676
0
LINE
8
Black
10
105.379
20
-102.676
11
105.384
21
-102.673
0
LINE
8
Black
10
105.384
20
-102.673
11
105.391
21
-102.671
0
LINE
8
Black
10
105.391
20
-102.671
11
105.397
21
-102.669
0
LINE
8
Black
10
105.397
20
-102.669
11
105.404
21
-102.669
0
LINE
8
Black
10
105.404
20
-102.669
11
105.41
21
-102.668
0
LINE
8
Black
10
105.41
20
-102.668
11
124.587
21
-102.668
0
LINE
8
Black
10
124.587
20
-102.668
11
124.593
21
-102.669
0
LINE
8
Black
10
105.485
20
-102.818
11
105.485
21
-118.543
0
LINE
8
Black
10
105.485
20
-118.543
11
124.512
21
-118.543
0
LINE
8
Black
10
124.512
20
-118.543
11
124.512
21
-102.818
0
LINE
8
Black
10
124.512
20
-102.818
11
105.485
21
-102.818
0
LINE
8
Black
10
143.516
20
-102.542
11
143.523
21
-102.542
0
LINE
8
Black
10
143.523
20
-102.542
11
143.529
21
-102.544
0
LINE
8
Black
10
143.529
20
-102.544
11
143.536
21
-102.546
0
LINE
8
Black
10
143.536
20
-102.546
11
143.541
21
-102.549
0
LINE
8
Black
10
143.541
20
-102.549
11
143.548
21
-102.551
0
LINE
8
Black
10
143.548
20
-102.551
11
143.553
21
-102.555
0
LINE
8
Black
10
143.553
20
-102.555
11
143.558
21
-102.559
0
LINE
8
Black
10
143.558
20
-102.559
11
143.562
21
-102.564
0
LINE
8
Black
10
143.562
20
-102.564
11
143.567
21
-102.568
0
LINE
8
Black
10
143.567
20
-102.568
11
143.571
21
-102.573
0
LINE
8
Black
10
143.571
20
-102.573
11
143.575
21
-102.579
0
LINE
8
Black
10
143.575
20
-102.579
11
143.577
21
-102.585
0
LINE
8
Black
10
143.577
20
-102.585
11
143.58
21
-102.59
0
LINE
8
Black
10
143.58
20
-102.59
11
143.582
21
-102.597
0
LINE
8
Black
10
143.582
20
-102.597
11
143.584
21
-102.603
0
LINE
8
Black
10
143.584
20
-102.603
11
143.584
21
-102.61
0
LINE
8
Black
10
143.584
20
-102.61
11
143.585
21
-102.616
0
LINE
8
Black
10
143.585
20
-102.616
11
143.585
21
-113.411
0
LINE
8
Black
10
143.585
20
-113.411
11
143.584
21
-113.417
0
LINE
8
Black
10
143.584
20
-113.417
11
143.584
21
-113.424
0
LINE
8
Black
10
143.584
20
-113.424
11
143.582
21
-113.43
0
LINE
8
Black
10
143.582
20
-113.43
11
143.58
21
-113.437
0
LINE
8
Black
10
143.58
20
-113.437
11
143.577
21
-113.442
0
LINE
8
Black
10
143.577
20
-113.442
11
143.575
21
-113.449
0
LINE
8
Black
10
143.575
20
-113.449
11
143.571
21
-113.454
0
LINE
8
Black
10
143.571
20
-113.454
11
143.567
21
-113.459
0
LINE
8
Black
10
143.567
20
-113.459
11
143.562
21
-113.463
0
LINE
8
Black
10
143.562
20
-113.463
11
143.558
21
-113.468
0
LINE
8
Black
10
143.558
20
-113.468
11
143.553
21
-113.472
0
LINE
8
Black
10
143.553
20
-113.472
11
143.548
21
-113.476
0
LINE
8
Black
10
143.548
20
-113.476
11
143.541
21
-113.478
0
LINE
8
Black
10
143.541
20
-113.478
11
143.536
21
-113.481
0
LINE
8
Black
10
143.536
20
-113.481
11
143.529
21
-113.483
0
LINE
8
Black
10
143.529
20
-113.483
11
143.523
21
-113.485
0
LINE
8
Black
10
143.523
20
-113.485
11
143.516
21
-113.485
0
LINE
8
Black
10
143.516
20
-113.485
11
143.51
21
-113.486
0
LINE
8
Black
10
143.51
20
-113.486
11
127.889
21
-113.486
0
LINE
8
Black
10
127.889
20
-113.486
11
127.883
21
-113.485
0
LINE
8
Black
10
127.883
20
-113.485
11
127.876
21
-113.485
0
LINE
8
Black
10
127.876
20
-113.485
11
127.87
21
-113.483
0
LINE
8
Black
10
127.87
20
-113.483
11
127.863
21
-113.481
0
LINE
8
Black
10
127.863
20
-113.481
11
127.858
21
-113.478
0
LINE
8
Black
10
127.858
20
-113.478
11
127.852
21
-113.476
0
LINE
8
Black
10
127.852
20
-113.476
11
127.846
21
-113.472
0
LINE
8
Black
10
127.846
20
-113.472
11
127.841
21
-113.468
0
LINE
8
Black
10
127.841
20
-113.468
11
127.837
21
-113.463
0
LINE
8
Black
10
127.837
20
-113.463
11
127.832
21
-113.459
0
LINE
8
Black
10
127.832
20
-113.459
11
127.828
21
-113.454
0
LINE
8
Black
10
127.828
20
-113.454
11
127.824
21
-113.449
0
LINE
8
Black
10
127.824
20
-113.449
11
127.822
21
-113.442
0
LINE
8
Black
10
127.822
20
-113.442
11
127.819
21
-113.437
0
LINE
8
Black
10
127.819
20
-113.437
11
127.817
21
-113.43
0
LINE
8
Black
10
127.817
20
-113.43
11
127.815
21
-113.424
0
LINE
8
Black
10
127.815
20
-113.424
11
127.815
21
-113.417
0
LINE
8
Black
10
127.815
20
-113.417
11
127.814
21
-113.411
0
LINE
8
Black
10
127.814
20
-113.411
11
127.814
21
-102.616
0
LINE
8
Black
10
127.814
20
-102.616
11
127.815
21
-102.61
0
LINE
8
Black
10
127.815
20
-102.61
11
127.815
21
-102.603
0
LINE
8
Black
10
127.815
20
-102.603
11
127.817
21
-102.597
0
LINE
8
Black
10
127.817
20
-102.597
11
127.819
21
-102.59
0
LINE
8
Black
10
127.819
20
-102.59
11
127.822
21
-102.585
0
LINE
8
Black
10
127.822
20
-102.585
11
127.824
21
-102.579
0
LINE
8
Black
10
127.824
20
-102.579
11
127.828
21
-102.573
0
LINE
8
Black
10
127.828
20
-102.573
11
127.832
21
-102.568
0
LINE
8
Black
10
127.832
20
-102.568
11
127.837
21
-102.564
0
LINE
8
Black
10
127.837
20
-102.564
11
127.841
21
-102.559
0
LINE
8
Black
10
127.841
20
-102.559
11
127.846
21
-102.555
0
LINE
8
Black
10
127.846
20
-102.555
11
127.852
21
-102.551
0
LINE
8
Black
10
127.852
20
-102.551
11
127.858
21
-102.549
0
LINE
8
Black
10
127.858
20
-102.549
11
127.863
21
-102.546
0
LINE
8
Black
10
127.863
20
-102.546
11
127.87
21
-102.544
0
LINE
8
Black
10
127.87
20
-102.544
11
127.876
21
-102.542
0
LINE
8
Black
10
127.876
20
-102.542
11
127.883
21
-102.542
0
LINE
8
Black
10
127.883
20
-102.542
11
127.889
21
-102.541
0
LINE
8
Black
10
127.889
20
-102.541
11
143.51
21
-102.541
0
LINE
8
Black
10
143.51
20
-102.541
11
143.516
21
-102.542
0
LINE
8
Black
10
127.964
20
-102.691
11
127.964
21
-113.336
0
LINE
8
Black
10
127.964
20
-113.336
11
143.435
21
-113.336
0
LINE
8
Black
10
143.435
20
-113.336
11
143.435
21
-102.691
0
LINE
8
Black
10
143.435
20
-102.691
11
127.964
21
-102.691
0
LINE
8
Black
10
143.389
20
-86.7941
11
143.396
21
-86.7941
0
LINE
8
Black
10
143.396
20
-86.7941
11
143.402
21
-86.7964
0
LINE
8
Black
10
143.402
20
-86.7964
11
143.409
21
-86.7975
0
LINE
8
Black
10
143.409
20
-86.7975
11
143.414
21
-86.8008
0
LINE
8
Black
10
143.414
20
-86.8008
11
143.421
21
-86.803
0
LINE
8
Black
10
143.421
20
-86.803
11
143.426
21
-86.8073
0
LINE
8
Black
10
143.426
20
-86.8073
11
143.431
21
-86.8105
0
LINE
8
Black
10
143.431
20
-86.8105
11
143.435
21
-86.8156
0
LINE
8
Black
10
143.435
20
-86.8156
11
143.44
21
-86.8198
0
LINE
8
Black
10
143.44
20
-86.8198
11
143.444
21
-86.8255
0
LINE
8
Black
10
143.444
20
-86.8255
11
143.448
21
-86.8305
0
LINE
8
Black
10
143.448
20
-86.8305
11
143.45
21
-86.8367
0
LINE
8
Black
10
143.45
20
-86.8367
11
143.453
21
-86.8423
0
LINE
8
Black
10
143.453
20
-86.8423
11
143.455
21
-86.8488
0
LINE
8
Black
10
143.455
20
-86.8488
11
143.457
21
-86.855
0
LINE
8
Black
10
143.457
20
-86.855
11
143.457
21
-86.8615
0
LINE
8
Black
10
143.457
20
-86.8615
11
143.458
21
-86.868
0
LINE
8
Black
10
143.458
20
-86.868
11
143.458
21
-99.314
0
LINE
8
Black
10
143.458
20
-99.314
11
143.457
21
-99.3205
0
LINE
8
Black
10
143.457
20
-99.3205
11
143.457
21
-99.327
0
LINE
8
Black
10
143.457
20
-99.327
11
143.455
21
-99.3332
0
LINE
8
Black
10
143.455
20
-99.3332
11
143.453
21
-99.3397
0
LINE
8
Black
10
143.453
20
-99.3397
11
143.45
21
-99.3453
0
LINE
8
Black
10
143.45
20
-99.3453
11
143.448
21
-99.3515
0
LINE
8
Black
10
143.448
20
-99.3515
11
143.444
21
-99.3565
0
LINE
8
Black
10
143.444
20
-99.3565
11
143.44
21
-99.3622
0
LINE
8
Black
10
143.44
20
-99.3622
11
143.435
21
-99.3664
0
LINE
8
Black
10
143.435
20
-99.3664
11
143.431
21
-99.3715
0
LINE
8
Black
10
143.431
20
-99.3715
11
143.426
21
-99.3747
0
LINE
8
Black
10
143.426
20
-99.3747
11
143.421
21
-99.379
0
LINE
8
Black
10
143.421
20
-99.379
11
143.414
21
-99.3812
0
LINE
8
Black
10
143.414
20
-99.3812
11
143.409
21
-99.3845
0
LINE
8
Black
10
143.409
20
-99.3845
11
143.402
21
-99.3856
0
LINE
8
Black
10
143.402
20
-99.3856
11
143.396
21
-99.3879
0
LINE
8
Black
10
143.396
20
-99.3879
11
143.389
21
-99.3879
0
LINE
8
Black
10
143.389
20
-99.3879
11
143.383
21
-99.389
0
LINE
8
Black
10
143.383
20
-99.389
11
126.238
21
-99.389
0
LINE
8
Black
10
126.238
20
-99.389
11
126.232
21
-99.3879
0
LINE
8
Black
10
126.232
20
-99.3879
11
126.225
21
-99.3879
0
LINE
8
Black
10
126.225
20
-99.3879
11
126.219
21
-99.3856
0
LINE
8
Black
10
126.219
20
-99.3856
11
126.212
21
-99.3845
0
LINE
8
Black
10
126.212
20
-99.3845
11
126.207
21
-99.3812
0
LINE
8
Black
10
126.207
20
-99.3812
11
126.201
21
-99.379
0
LINE
8
Black
10
126.201
20
-99.379
11
126.195
21
-99.3747
0
LINE
8
Black
10
126.195
20
-99.3747
11
126.19
21
-99.3715
0
LINE
8
Black
10
126.19
20
-99.3715
11
126.186
21
-99.3664
0
LINE
8
Black
10
126.186
20
-99.3664
11
126.181
21
-99.3622
0
LINE
8
Black
10
126.181
20
-99.3622
11
126.177
21
-99.3565
0
LINE
8
Black
10
126.177
20
-99.3565
11
126.173
21
-99.3515
0
LINE
8
Black
10
126.173
20
-99.3515
11
126.171
21
-99.3453
0
LINE
8
Black
10
126.171
20
-99.3453
11
126.168
21
-99.3397
0
LINE
8
Black
10
126.168
20
-99.3397
11
126.166
21
-99.3332
0
LINE
8
Black
10
126.166
20
-99.3332
11
126.164
21
-99.327
0
LINE
8
Black
10
126.164
20
-99.327
11
126.164
21
-99.3205
0
LINE
8
Black
10
126.164
20
-99.3205
11
126.163
21
-99.314
0
LINE
8
Black
10
126.163
20
-99.314
11
126.163
21
-86.868
0
LINE
8
Black
10
126.163
20
-86.868
11
126.164
21
-86.8615
0
LINE
8
Black
10
126.164
20
-86.8615
11
126.164
21
-86.855
0
LINE
8
Black
10
126.164
20
-86.855
11
126.166
21
-86.8488
0
LINE
8
Black
10
126.166
20
-86.8488
11
126.168
21
-86.8423
0
LINE
8
Black
10
126.168
20
-86.8423
11
126.171
21
-86.8367
0
LINE
8
Black
10
126.171
20
-86.8367
11
126.173
21
-86.8305
0
LINE
8
Black
10
126.173
20
-86.8305
11
126.177
21
-86.8255
0
LINE
8
Black
10
126.177
20
-86.8255
11
126.181
21
-86.8198
0
LINE
8
Black
10
126.181
20
-86.8198
11
126.186
21
-86.8156
0
LINE
8
Black
10
126.186
20
-86.8156
11
126.19
21
-86.8105
0
LINE
8
Black
10
126.19
20
-86.8105
11
126.195
21
-86.8073
0
LINE
8
Black
10
126.195
20
-86.8073
11
126.201
21
-86.803
0
LINE
8
Black
10
126.201
20
-86.803
11
126.207
21
-86.8008
0
LINE
8
Black
10
126.207
20
-86.8008
11
126.212
21
-86.7975
0
LINE
8
Black
10
126.212
20
-86.7975
11
126.219
21
-86.7964
0
LINE
8
Black
10
126.219
20
-86.7964
11
126.225
21
-86.7941
0
LINE
8
Black
10
126.225
20
-86.7941
11
126.232
21
-86.7941
0
LINE
8
Black
10
126.232
20
-86.7941
11
126.238
21
-86.793
0
LINE
8
Black
10
126.238
20
-86.793
11
143.383
21
-86.793
0
LINE
8
Black
10
143.383
20
-86.793
11
143.389
21
-86.7941
0
LINE
8
Black
10
126.313
20
-86.943
11
126.313
21
-99.239
0
LINE
8
Black
10
126.313
20
-99.239
11
143.308
21
-99.239
0
LINE
8
Black
10
143.308
20
-99.239
11
143.308
21
-86.943
0
LINE
8
Black
10
143.308
20
-86.943
11
126.313
21
-86.943
0
LINE
8
Black
10
123.831
20
-86.7941
11
123.838
21
-86.7941
0
LINE
8
Black
10
123.838
20
-86.7941
11
123.844
21
-86.7964
0
LINE
8
Black
10
123.844
20
-86.7964
11
123.851
21
-86.7975
0
LINE
8
Black
10
123.851
20
-86.7975
11
123.856
21
-86.8008
0
LINE
8
Black
10
123.856
20
-86.8008
11
123.863
21
-86.803
0
LINE
8
Black
10
123.863
20
-86.803
11
123.868
21
-86.8073
0
LINE
8
Black
10
123.868
20
-86.8073
11
123.873
21
-86.8105
0
LINE
8
Black
10
123.873
20
-86.8105
11
123.877
21
-86.8156
0
LINE
8
Black
10
123.877
20
-86.8156
11
123.882
21
-86.8198
0
LINE
8
Black
10
123.882
20
-86.8198
11
123.886
21
-86.8255
0
LINE
8
Black
10
123.886
20
-86.8255
11
123.89
21
-86.8305
0
LINE
8
Black
10
123.89
20
-86.8305
11
123.892
21
-86.8367
0
LINE
8
Black
10
123.892
20
-86.8367
11
123.895
21
-86.8423
0
LINE
8
Black
10
123.895
20
-86.8423
11
123.897
21
-86.8488
0
LINE
8
Black
10
123.897
20
-86.8488
11
123.899
21
-86.855
0
LINE
8
Black
10
123.899
20
-86.855
11
123.899
21
-86.8615
0
LINE
8
Black
10
123.899
20
-86.8615
11
123.9
21
-86.868
0
LINE
8
Black
10
123.9
20
-86.868
11
123.9
21
-99.314
0
LINE
8
Black
10
123.9
20
-99.314
11
123.899
21
-99.3205
0
LINE
8
Black
10
123.899
20
-99.3205
11
123.899
21
-99.327
0
LINE
8
Black
10
123.899
20
-99.327
11
123.897
21
-99.3332
0
LINE
8
Black
10
123.897
20
-99.3332
11
123.895
21
-99.3397
0
LINE
8
Black
10
123.895
20
-99.3397
11
123.892
21
-99.3453
0
LINE
8
Black
10
123.892
20
-99.3453
11
123.89
21
-99.3515
0
LINE
8
Black
10
123.89
20
-99.3515
11
123.886
21
-99.3565
0
LINE
8
Black
10
123.886
20
-99.3565
11
123.882
21
-99.3622
0
LINE
8
Black
10
123.882
20
-99.3622
11
123.877
21
-99.3664
0
LINE
8
Black
10
123.877
20
-99.3664
11
123.873
21
-99.3715
0
LINE
8
Black
10
123.873
20
-99.3715
11
123.868
21
-99.3747
0
LINE
8
Black
10
123.868
20
-99.3747
11
123.863
21
-99.379
0
LINE
8
Black
10
123.863
20
-99.379
11
123.856
21
-99.3812
0
LINE
8
Black
10
123.856
20
-99.3812
11
123.851
21
-99.3845
0
LINE
8
Black
10
123.851
20
-99.3845
11
123.844
21
-99.3856
0
LINE
8
Black
10
123.844
20
-99.3856
11
123.838
21
-99.3879
0
LINE
8
Black
10
123.838
20
-99.3879
11
123.831
21
-99.3879
0
LINE
8
Black
10
123.831
20
-99.3879
11
123.825
21
-99.389
0
LINE
8
Black
10
123.825
20
-99.389
11
106.68
21
-99.389
0
LINE
8
Black
10
106.68
20
-99.389
11
106.674
21
-99.3879
0
LINE
8
Black
10
106.674
20
-99.3879
11
106.667
21
-99.3879
0
LINE
8
Black
10
106.667
20
-99.3879
11
106.661
21
-99.3856
0
LINE
8
Black
10
106.661
20
-99.3856
11
106.654
21
-99.3845
0
LINE
8
Black
10
106.654
20
-99.3845
11
106.649
21
-99.3812
0
LINE
8
Black
10
106.649
20
-99.3812
11
106.643
21
-99.379
0
LINE
8
Black
10
106.643
20
-99.379
11
106.637
21
-99.3747
0
LINE
8
Black
10
106.637
20
-99.3747
11
106.632
21
-99.3715
0
LINE
8
Black
10
106.632
20
-99.3715
11
106.628
21
-99.3664
0
LINE
8
Black
10
106.628
20
-99.3664
11
106.623
21
-99.3622
0
LINE
8
Black
10
106.623
20
-99.3622
11
106.619
21
-99.3565
0
LINE
8
Black
10
106.619
20
-99.3565
11
106.615
21
-99.3515
0
LINE
8
Black
10
106.615
20
-99.3515
11
106.613
21
-99.3453
0
LINE
8
Black
10
106.613
20
-99.3453
11
106.61
21
-99.3397
0
LINE
8
Black
10
106.61
20
-99.3397
11
106.608
21
-99.3332
0
LINE
8
Black
10
106.608
20
-99.3332
11
106.606
21
-99.327
0
LINE
8
Black
10
106.606
20
-99.327
11
106.606
21
-99.3205
0
LINE
8
Black
10
106.606
20
-99.3205
11
106.605
21
-99.314
0
LINE
8
Black
10
106.605
20
-99.314
11
106.605
21
-86.868
0
LINE
8
Black
10
106.605
20
-86.868
11
106.606
21
-86.8615
0
LINE
8
Black
10
106.606
20
-86.8615
11
106.606
21
-86.855
0
LINE
8
Black
10
106.606
20
-86.855
11
106.608
21
-86.8488
0
LINE
8
Black
10
106.608
20
-86.8488
11
106.61
21
-86.8423
0
LINE
8
Black
10
106.61
20
-86.8423
11
106.613
21
-86.8367
0
LINE
8
Black
10
106.613
20
-86.8367
11
106.615
21
-86.8305
0
LINE
8
Black
10
106.615
20
-86.8305
11
106.619
21
-86.8255
0
LINE
8
Black
10
106.619
20
-86.8255
11
106.623
21
-86.8198
0
LINE
8
Black
10
106.623
20
-86.8198
11
106.628
21
-86.8156
0
LINE
8
Black
10
106.628
20
-86.8156
11
106.632
21
-86.8105
0
LINE
8
Black
10
106.632
20
-86.8105
11
106.637
21
-86.8073
0
LINE
8
Black
10
106.637
20
-86.8073
11
106.643
21
-86.803
0
LINE
8
Black
10
106.643
20
-86.803
11
106.649
21
-86.8008
0
LINE
8
Black
10
106.649
20
-86.8008
11
106.654
21
-86.7975
0
LINE
8
Black
10
106.654
20
-86.7975
11
106.661
21
-86.7964
0
LINE
8
Black
10
106.661
20
-86.7964
11
106.667
21
-86.7941
0
LINE
8
Black
10
106.667
20
-86.7941
11
106.674
21
-86.7941
0
LINE
8
Black
10
106.674
20
-86.7941
11
106.68
21
-86.793
0
LINE
8
Black
10
106.68
20
-86.793
11
123.825
21
-86.793
0
LINE
8
Black
10
123.825
20
-86.793
11
123.831
21
-86.7941
0
LINE
8
Black
10
106.755
20
-86.943
11
106.755
21
-99.239
0
LINE
8
Black
10
106.755
20
-99.239
11
123.75
21
-99.239
0
LINE
8
Black
10
123.75
20
-99.239
11
123.75
21
-86.943
0
LINE
8
Black
10
123.75
20
-86.943
11
106.755
21
-86.943
0
CIRCLE
8
Black
10
130.302
20
-125.349
40
0.5
0
CIRCLE
8
Black
10
130.302
20
-122.809
40
0.5
0
CIRCLE
8
Black
10
130.175
20
-120.015
40
0.5
0
CIRCLE
8
Black
10
130.175
20
-117.475
40
0.5
0
CIRCLE
8
Black
10
141.224
20
-119.126
40
0.5
0
CIRCLE
8
Black
10
141.224
20
-121.666
40
0.5
0
CIRCLE
8
Black
10
141.224
20
-124.206
40
0.5
0
CIRCLE
8
Black
10
128.397
20
-94.107
40
0.5
0
CIRCLE
8
Black
10
128.397
20
-91.567
40
0.5
0
CIRCLE
8
Black
10
128.397
20
-89.027
40
0.5
0
CIRCLE
8
Black
10
141.097
20
-94.996
40
0.5
0
CIRCLE
8
Black
10
141.097
20
-97.536
40
0.5
0
CIRCLE
8
Black
10
141.097
20
-88.9
40
0.5
0
CIRCLE
8
Black
10
141.097
20
-91.44
40
0.5
0
CIRCLE
8
Black
10
108.839
20
-111.887
40
0.5
0
CIRCLE
8
Black
10
108.839
20
-109.347
40
0.5
0
CIRCLE
8
Black
10
121.539
20
-88.9
40
0.5
0
CIRCLE
8
Black
10
121.539
20
-91.44
40
0.5
0
CIRCLE
8
Black
10
130.175
20
-106.68
40
0.5
0
CIRCLE
8
Black
10
130.175
20
-104.14
40
0.5
0
CIRCLE
8
Black
10
121.539
20
-94.996
40
0.5
0
CIRCLE
8
Black
10
121.539
20
-97.536
40
0.5
0
CIRCLE
8
Black
10
130.175
20
-112.014
40
0.5
0
CIRCLE
8
Black
10
130.175
20
-109.474
40
0.5
0
CIRCLE
8
Black
10
108.839
20
-94.107
40
0.5
0
CIRCLE
8
Black
10
108.839
20
-91.567
40
0.5
0
CIRCLE
8
Black
10
108.839
20
-89.027
40
0.5
0
CIRCLE
8
Black
10
108.839
20
-117.221
40
0.5
0
CIRCLE
8
Black
10
108.839
20
-114.681
40
0.5
0
CIRCLE
8
Black
10
108.839
20
-106.807
40
0.5
0
CIRCLE
8
Black
10
108.839
20
-104.267
40
0.5
0
CIRCLE
8
Black
10
122.555
20
-109.22
40
0.5
0
CIRCLE
8
Black
10
122.555
20
-106.68
40
0.5
0
CIRCLE
8
Black
10
122.555
20
-104.14
40
0.5
0
CIRCLE
8
Black
10
122.555
20
-111.76
40
0.5
0
CIRCLE
8
Black
10
122.555
20
-114.3
40
0.5
0
CIRCLE
8
Black
10
122.555
20
-116.84
40
0.5
0
CIRCLE
8
Black
10
141.224
20
-105.791
40
0.5
0
CIRCLE
8
Black
10
141.224
20
-108.331
40
0.5
0
CIRCLE
8
Black
10
141.224
20
-110.871
40
0.5
0
CIRCLE
8
Black
10
117.983
20
-110.236
40
0.5
0
LINE
8
Black
10
142.238
20
-123.497
11
142.465
21
-123.628
0
LINE
8
Black
10
142.465
20
-123.628
11
142.634
21
-123.829
0
LINE
8
Black
10
142.634
20
-123.829
11
142.723
21
-124.075
0
LINE
8
Black
10
142.723
20
-124.075
11
142.723
21
-124.337
0
LINE
8
Black
10
142.723
20
-124.337
11
142.634
21
-124.584
0
LINE
8
Black
10
142.634
20
-124.584
11
142.465
21
-124.784
0
LINE
8
Black
10
142.465
20
-124.784
11
142.238
21
-124.915
0
LINE
8
Black
10
142.238
20
-124.915
11
141.98
21
-124.961
0
LINE
8
Black
10
141.98
20
-124.961
11
140.468
21
-124.961
0
LINE
8
Black
10
140.468
20
-124.961
11
140.21
21
-124.915
0
LINE
8
Black
10
140.21
20
-124.915
11
139.983
21
-124.784
0
LINE
8
Black
10
139.983
20
-124.784
11
139.814
21
-124.584
0
LINE
8
Black
10
139.814
20
-124.584
11
139.786
21
-124.506
0
LINE
8
Black
10
139.786
20
-124.506
11
136.086
21
-124.506
0
LINE
8
Black
10
136.086
20
-124.506
11
136.086
21
-125.017
0
LINE
8
Black
10
136.086
20
-125.017
11
135.46
21
-125.017
0
LINE
8
Black
10
135.46
20
-125.017
11
134.916
21
-125.561
0
LINE
8
Black
10
134.916
20
-125.561
11
134.905
21
-125.569
0
LINE
8
Black
10
134.905
20
-125.569
11
134.897
21
-125.579
0
LINE
8
Black
10
134.897
20
-125.579
11
134.863
21
-125.598
0
LINE
8
Black
10
134.863
20
-125.598
11
134.831
21
-125.621
0
LINE
8
Black
10
134.831
20
-125.621
11
134.818
21
-125.624
0
LINE
8
Black
10
134.818
20
-125.624
11
134.807
21
-125.631
0
LINE
8
Black
10
134.807
20
-125.631
11
134.768
21
-125.638
0
LINE
8
Black
10
134.768
20
-125.638
11
134.73
21
-125.648
0
LINE
8
Black
10
134.73
20
-125.648
11
134.717
21
-125.647
0
LINE
8
Black
10
134.717
20
-125.647
11
134.704
21
-125.649
0
LINE
8
Black
10
134.704
20
-125.649
11
131.74
21
-125.649
0
LINE
8
Black
10
131.74
20
-125.649
11
131.712
21
-125.727
0
LINE
8
Black
10
131.712
20
-125.727
11
131.543
21
-125.927
0
LINE
8
Black
10
131.543
20
-125.927
11
131.316
21
-126.058
0
LINE
8
Black
10
131.316
20
-126.058
11
131.058
21
-126.104
0
LINE
8
Black
10
131.058
20
-126.104
11
129.546
21
-126.104
0
LINE
8
Black
10
129.546
20
-126.104
11
129.288
21
-126.058
0
LINE
8
Black
10
129.288
20
-126.058
11
129.061
21
-125.927
0
LINE
8
Black
10
129.061
20
-125.927
11
128.892
21
-125.727
0
LINE
8
Black
10
128.892
20
-125.727
11
128.803
21
-125.48
0
LINE
8
Black
10
128.803
20
-125.48
11
128.803
21
-125.218
0
LINE
8
Black
10
128.803
20
-125.218
11
128.892
21
-124.972
0
LINE
8
Black
10
128.892
20
-124.972
11
129.061
21
-124.771
0
LINE
8
Black
10
129.061
20
-124.771
11
129.288
21
-124.64
0
LINE
8
Black
10
129.288
20
-124.64
11
129.546
21
-124.594
0
LINE
8
Black
10
129.546
20
-124.594
11
131.058
21
-124.594
0
LINE
8
Black
10
131.058
20
-124.594
11
131.316
21
-124.64
0
LINE
8
Black
10
131.316
20
-124.64
11
131.543
21
-124.771
0
LINE
8
Black
10
131.543
20
-124.771
11
131.712
21
-124.972
0
LINE
8
Black
10
131.712
20
-124.972
11
131.74
21
-125.049
0
LINE
8
Black
10
131.74
20
-125.049
11
134.58
21
-125.049
0
LINE
8
Black
10
134.58
20
-125.049
11
135.186
21
-124.443
0
LINE
8
Black
10
135.186
20
-124.443
11
135.186
21
-123.817
0
LINE
8
Black
10
135.186
20
-123.817
11
136.086
21
-123.817
0
LINE
8
Black
10
136.086
20
-123.817
11
136.086
21
-123.906
0
LINE
8
Black
10
136.086
20
-123.906
11
139.786
21
-123.906
0
LINE
8
Black
10
139.786
20
-123.906
11
139.814
21
-123.829
0
LINE
8
Black
10
139.814
20
-123.829
11
139.983
21
-123.628
0
LINE
8
Black
10
139.983
20
-123.628
11
140.21
21
-123.497
0
LINE
8
Black
10
140.21
20
-123.497
11
140.468
21
-123.451
0
LINE
8
Black
10
140.468
20
-123.451
11
141.98
21
-123.451
0
LINE
8
Black
10
141.98
20
-123.451
11
142.238
21
-123.497
0
LINE
8
Black
10
133.673
20
-123.239
11
132.773
21
-123.239
0
LINE
8
Black
10
132.773
20
-123.239
11
132.773
21
-123.109
0
LINE
8
Black
10
132.773
20
-123.109
11
131.74
21
-123.109
0
LINE
8
Black
10
131.74
20
-123.109
11
131.712
21
-123.187
0
LINE
8
Black
10
131.712
20
-123.187
11
131.543
21
-123.387
0
LINE
8
Black
10
131.543
20
-123.387
11
131.316
21
-123.518
0
LINE
8
Black
10
131.316
20
-123.518
11
131.058
21
-123.564
0
LINE
8
Black
10
131.058
20
-123.564
11
129.546
21
-123.564
0
LINE
8
Black
10
129.546
20
-123.564
11
129.288
21
-123.518
0
LINE
8
Black
10
129.288
20
-123.518
11
129.061
21
-123.387
0
LINE
8
Black
10
129.061
20
-123.387
11
128.892
21
-123.187
0
LINE
8
Black
10
128.892
20
-123.187
11
128.803
21
-122.94
0
LINE
8
Black
10
128.803
20
-122.94
11
128.803
21
-122.678
0
LINE
8
Black
10
128.803
20
-122.678
11
128.892
21
-122.432
0
LINE
8
Black
10
128.892
20
-122.432
11
129.061
21
-122.231
0
LINE
8
Black
10
129.061
20
-122.231
11
129.288
21
-122.1
0
LINE
8
Black
10
129.288
20
-122.1
11
129.546
21
-122.054
0
LINE
8
Black
10
129.546
20
-122.054
11
131.058
21
-122.054
0
LINE
8
Black
10
131.058
20
-122.054
11
131.316
21
-122.1
0
LINE
8
Black
10
131.316
20
-122.1
11
131.543
21
-122.231
0
LINE
8
Black
10
131.543
20
-122.231
11
131.712
21
-122.432
0
LINE
8
Black
10
131.712
20
-122.432
11
131.74
21
-122.509
0
LINE
8
Black
10
131.74
20
-122.509
11
132.773
21
-122.509
0
LINE
8
Black
10
132.773
20
-122.509
11
132.773
21
-122.039
0
LINE
8
Black
10
132.773
20
-122.039
11
133.673
21
-122.039
0
LINE
8
Black
10
133.673
20
-122.039
11
133.673
21
-123.239
0
LINE
8
Black
10
142.238
20
-120.957
11
142.465
21
-121.088
0
LINE
8
Black
10
142.465
20
-121.088
11
142.634
21
-121.289
0
LINE
8
Black
10
142.634
20
-121.289
11
142.723
21
-121.535
0
LINE
8
Black
10
142.723
20
-121.535
11
142.723
21
-121.797
0
LINE
8
Black
10
142.723
20
-121.797
11
142.634
21
-122.044
0
LINE
8
Black
10
142.634
20
-122.044
11
142.465
21
-122.244
0
LINE
8
Black
10
142.465
20
-122.244
11
142.238
21
-122.375
0
LINE
8
Black
10
142.238
20
-122.375
11
141.98
21
-122.421
0
LINE
8
Black
10
141.98
20
-122.421
11
140.468
21
-122.421
0
LINE
8
Black
10
140.468
20
-122.421
11
140.21
21
-122.375
0
LINE
8
Black
10
140.21
20
-122.375
11
139.983
21
-122.244
0
LINE
8
Black
10
139.983
20
-122.244
11
139.926
21
-122.177
0
LINE
8
Black
10
139.926
20
-122.177
11
138.245
21
-122.177
0
LINE
8
Black
10
138.245
20
-122.177
11
138.245
21
-122.477
0
LINE
8
Black
10
138.245
20
-122.477
11
137.599
21
-122.477
0
LINE
8
Black
10
137.599
20
-122.477
11
137.582
21
-122.489
0
LINE
8
Black
10
137.582
20
-122.489
11
137.569
21
-122.492
0
LINE
8
Black
10
137.569
20
-122.492
11
137.558
21
-122.499
0
LINE
8
Black
10
137.558
20
-122.499
11
137.519
21
-122.506
0
LINE
8
Black
10
137.519
20
-122.506
11
137.481
21
-122.516
0
LINE
8
Black
10
137.481
20
-122.516
11
137.468
21
-122.515
0
LINE
8
Black
10
137.468
20
-122.515
11
137.455
21
-122.517
0
LINE
8
Black
10
137.455
20
-122.517
11
136.086
21
-122.517
0
LINE
8
Black
10
136.086
20
-122.517
11
136.086
21
-122.817
0
LINE
8
Black
10
136.086
20
-122.817
11
135.186
21
-122.817
0
LINE
8
Black
10
135.186
20
-122.817
11
135.186
21
-121.617
0
LINE
8
Black
10
135.186
20
-121.617
11
136.086
21
-121.617
0
LINE
8
Black
10
136.086
20
-121.617
11
136.086
21
-121.917
0
LINE
8
Black
10
136.086
20
-121.917
11
137.331
21
-121.917
0
LINE
8
Black
10
137.331
20
-121.917
11
137.345
21
-121.903
0
LINE
8
Black
10
137.345
20
-121.903
11
137.345
21
-121.277
0
LINE
8
Black
10
137.345
20
-121.277
11
138.245
21
-121.277
0
LINE
8
Black
10
138.245
20
-121.277
11
138.245
21
-121.577
0
LINE
8
Black
10
138.245
20
-121.577
11
139.725
21
-121.577
0
LINE
8
Black
10
139.725
20
-121.577
11
139.725
21
-121.535
0
LINE
8
Black
10
139.725
20
-121.535
11
139.814
21
-121.289
0
LINE
8
Black
10
139.814
20
-121.289
11
139.983
21
-121.088
0
LINE
8
Black
10
139.983
20
-121.088
11
140.21
21
-120.957
0
LINE
8
Black
10
140.21
20
-120.957
11
140.468
21
-120.911
0
LINE
8
Black
10
140.468
20
-120.911
11
141.98
21
-120.911
0
LINE
8
Black
10
141.98
20
-120.911
11
142.238
21
-120.957
0
LINE
8
Black
10
138.245
20
-120.277
11
137.345
21
-120.277
0
LINE
8
Black
10
137.345
20
-120.277
11
137.345
21
-119.977
0
LINE
8
Black
10
137.345
20
-119.977
11
134.109
21
-119.977
0
LINE
8
Black
10
134.109
20
-119.977
11
133.673
21
-120.413
0
LINE
8
Black
10
133.673
20
-120.413
11
133.673
21
-121.039
0
LINE
8
Black
10
133.673
20
-121.039
11
132.773
21
-121.039
0
LINE
8
Black
10
132.773
20
-121.039
11
132.773
21
-120.413
0
LINE
8
Black
10
132.773
20
-120.413
11
132.675
21
-120.315
0
LINE
8
Black
10
132.675
20
-120.315
11
131.613
21
-120.315
0
LINE
8
Black
10
131.613
20
-120.315
11
131.585
21
-120.393
0
LINE
8
Black
10
131.585
20
-120.393
11
131.416
21
-120.593
0
LINE
8
Black
10
131.416
20
-120.593
11
131.189
21
-120.724
0
LINE
8
Black
10
131.189
20
-120.724
11
130.931
21
-120.77
0
LINE
8
Black
10
130.931
20
-120.77
11
129.419
21
-120.77
0
LINE
8
Black
10
129.419
20
-120.77
11
129.161
21
-120.724
0
LINE
8
Black
10
129.161
20
-120.724
11
128.934
21
-120.593
0
LINE
8
Black
10
128.934
20
-120.593
11
128.765
21
-120.393
0
LINE
8
Black
10
128.765
20
-120.393
11
128.676
21
-120.146
0
LINE
8
Black
10
128.676
20
-120.146
11
128.676
21
-119.884
0
LINE
8
Black
10
128.676
20
-119.884
11
128.765
21
-119.638
0
LINE
8
Black
10
128.765
20
-119.638
11
128.934
21
-119.437
0
LINE
8
Black
10
128.934
20
-119.437
11
129.161
21
-119.306
0
LINE
8
Black
10
129.161
20
-119.306
11
129.419
21
-119.26
0
LINE
8
Black
10
129.419
20
-119.26
11
130.931
21
-119.26
0
LINE
8
Black
10
130.931
20
-119.26
11
131.189
21
-119.306
0
LINE
8
Black
10
131.189
20
-119.306
11
131.416
21
-119.437
0
LINE
8
Black
10
131.416
20
-119.437
11
131.585
21
-119.638
0
LINE
8
Black
10
131.585
20
-119.638
11
131.613
21
-119.715
0
LINE
8
Black
10
131.613
20
-119.715
11
132.799
21
-119.715
0
LINE
8
Black
10
132.799
20
-119.715
11
132.812
21
-119.717
0
LINE
8
Black
10
132.812
20
-119.717
11
132.825
21
-119.716
0
LINE
8
Black
10
132.825
20
-119.716
11
132.863
21
-119.726
0
LINE
8
Black
10
132.863
20
-119.726
11
132.902
21
-119.733
0
LINE
8
Black
10
132.902
20
-119.733
11
132.913
21
-119.74
0
LINE
8
Black
10
132.913
20
-119.74
11
132.926
21
-119.743
0
LINE
8
Black
10
132.926
20
-119.743
11
132.958
21
-119.766
0
LINE
8
Black
10
132.958
20
-119.766
11
132.992
21
-119.785
0
LINE
8
Black
10
132.992
20
-119.785
11
133
21
-119.795
0
LINE
8
Black
10
133
20
-119.795
11
133.011
21
-119.803
0
LINE
8
Black
10
133.011
20
-119.803
11
133.047
21
-119.839
0
LINE
8
Black
10
133.047
20
-119.839
11
133.399
21
-119.839
0
LINE
8
Black
10
133.399
20
-119.839
11
133.773
21
-119.465
0
LINE
8
Black
10
133.773
20
-119.465
11
133.784
21
-119.457
0
LINE
8
Black
10
133.784
20
-119.457
11
133.792
21
-119.447
0
LINE
8
Black
10
133.792
20
-119.447
11
133.826
21
-119.428
0
LINE
8
Black
10
133.826
20
-119.428
11
133.858
21
-119.405
0
LINE
8
Black
10
133.858
20
-119.405
11
133.871
21
-119.402
0
LINE
8
Black
10
133.871
20
-119.402
11
133.882
21
-119.395
0
LINE
8
Black
10
133.882
20
-119.395
11
133.921
21
-119.388
0
LINE
8
Black
10
133.921
20
-119.388
11
133.959
21
-119.378
0
LINE
8
Black
10
133.959
20
-119.378
11
133.972
21
-119.379
0
LINE
8
Black
10
133.972
20
-119.379
11
133.985
21
-119.377
0
LINE
8
Black
10
133.985
20
-119.377
11
137.345
21
-119.377
0
LINE
8
Black
10
137.345
20
-119.377
11
137.345
21
-119.077
0
LINE
8
Black
10
137.345
20
-119.077
11
138.245
21
-119.077
0
LINE
8
Black
10
138.245
20
-119.077
11
138.245
21
-120.277
0
LINE
8
Black
10
131.189
20
-116.766
11
131.416
21
-116.897
0
LINE
8
Black
10
131.416
20
-116.897
11
131.585
21
-117.098
0
LINE
8
Black
10
131.585
20
-117.098
11
131.613
21
-117.175
0
LINE
8
Black
10
131.613
20
-117.175
11
139.573
21
-117.175
0
LINE
8
Black
10
139.573
20
-117.175
11
139.586
21
-117.177
0
LINE
8
Black
10
139.586
20
-117.177
11
139.599
21
-117.176
0
LINE
8
Black
10
139.599
20
-117.176
11
139.637
21
-117.186
0
LINE
8
Black
10
139.637
20
-117.186
11
139.676
21
-117.193
0
LINE
8
Black
10
139.676
20
-117.193
11
139.687
21
-117.2
0
LINE
8
Black
10
139.687
20
-117.2
11
139.7
21
-117.203
0
LINE
8
Black
10
139.7
20
-117.203
11
139.732
21
-117.226
0
LINE
8
Black
10
139.732
20
-117.226
11
139.766
21
-117.245
0
LINE
8
Black
10
139.766
20
-117.245
11
139.774
21
-117.255
0
LINE
8
Black
10
139.774
20
-117.255
11
139.785
21
-117.263
0
LINE
8
Black
10
139.785
20
-117.263
11
140.893
21
-118.371
0
LINE
8
Black
10
140.893
20
-118.371
11
141.98
21
-118.371
0
LINE
8
Black
10
141.98
20
-118.371
11
142.238
21
-118.417
0
LINE
8
Black
10
142.238
20
-118.417
11
142.465
21
-118.548
0
LINE
8
Black
10
142.465
20
-118.548
11
142.634
21
-118.749
0
LINE
8
Black
10
142.634
20
-118.749
11
142.723
21
-118.995
0
LINE
8
Black
10
142.723
20
-118.995
11
142.723
21
-119.257
0
LINE
8
Black
10
142.723
20
-119.257
11
142.634
21
-119.504
0
LINE
8
Black
10
142.634
20
-119.504
11
142.465
21
-119.704
0
LINE
8
Black
10
142.465
20
-119.704
11
142.238
21
-119.835
0
LINE
8
Black
10
142.238
20
-119.835
11
141.98
21
-119.881
0
LINE
8
Black
10
141.98
20
-119.881
11
140.468
21
-119.881
0
LINE
8
Black
10
140.468
20
-119.881
11
140.21
21
-119.835
0
LINE
8
Black
10
140.21
20
-119.835
11
139.983
21
-119.704
0
LINE
8
Black
10
139.983
20
-119.704
11
139.814
21
-119.504
0
LINE
8
Black
10
139.814
20
-119.504
11
139.725
21
-119.257
0
LINE
8
Black
10
139.725
20
-119.257
11
139.725
21
-118.995
0
LINE
8
Black
10
139.725
20
-118.995
11
139.814
21
-118.749
0
LINE
8
Black
10
139.814
20
-118.749
11
139.983
21
-118.548
0
LINE
8
Black
10
139.983
20
-118.548
11
140.134
21
-118.46
0
LINE
8
Black
10
140.134
20
-118.46
11
139.449
21
-117.775
0
LINE
8
Black
10
139.449
20
-117.775
11
131.613
21
-117.775
0
LINE
8
Black
10
131.613
20
-117.775
11
131.585
21
-117.853
0
LINE
8
Black
10
131.585
20
-117.853
11
131.416
21
-118.053
0
LINE
8
Black
10
131.416
20
-118.053
11
131.189
21
-118.184
0
LINE
8
Black
10
131.189
20
-118.184
11
130.931
21
-118.23
0
LINE
8
Black
10
130.931
20
-118.23
11
129.419
21
-118.23
0
LINE
8
Black
10
129.419
20
-118.23
11
129.161
21
-118.184
0
LINE
8
Black
10
129.161
20
-118.184
11
128.934
21
-118.053
0
LINE
8
Black
10
128.934
20
-118.053
11
128.765
21
-117.853
0
LINE
8
Black
10
128.765
20
-117.853
11
128.676
21
-117.606
0
LINE
8
Black
10
128.676
20
-117.606
11
128.676
21
-117.344
0
LINE
8
Black
10
128.676
20
-117.344
11
128.765
21
-117.098
0
LINE
8
Black
10
128.765
20
-117.098
11
128.934
21
-116.897
0
LINE
8
Black
10
128.934
20
-116.897
11
129.161
21
-116.766
0
LINE
8
Black
10
129.161
20
-116.766
11
129.419
21
-116.72
0
LINE
8
Black
10
129.419
20
-116.72
11
130.931
21
-116.72
0
LINE
8
Black
10
130.931
20
-116.72
11
131.189
21
-116.766
0
LINE
8
Black
10
110.249
20
-117.599
11
110.08
21
-117.799
0
LINE
8
Black
10
110.08
20
-117.799
11
109.853
21
-117.93
0
LINE
8
Black
10
109.853
20
-117.93
11
109.595
21
-117.976
0
LINE
8
Black
10
109.595
20
-117.976
11
108.083
21
-117.976
0
LINE
8
Black
10
108.083
20
-117.976
11
107.825
21
-117.93
0
LINE
8
Black
10
107.825
20
-117.93
11
107.598
21
-117.799
0
LINE
8
Black
10
107.598
20
-117.799
11
107.429
21
-117.599
0
LINE
8
Black
10
107.429
20
-117.599
11
107.401
21
-117.521
0
LINE
8
Black
10
107.401
20
-117.521
11
107.061
21
-117.521
0
LINE
8
Black
10
107.061
20
-117.521
11
107.048
21
-117.519
0
LINE
8
Black
10
107.048
20
-117.519
11
107.035
21
-117.52
0
LINE
8
Black
10
107.035
20
-117.52
11
106.997
21
-117.51
0
LINE
8
Black
10
106.997
20
-117.51
11
106.958
21
-117.503
0
LINE
8
Black
10
106.958
20
-117.503
11
106.947
21
-117.496
0
LINE
8
Black
10
106.947
20
-117.496
11
106.934
21
-117.493
0
LINE
8
Black
10
106.934
20
-117.493
11
106.902
21
-117.47
0
LINE
8
Black
10
106.902
20
-117.47
11
106.868
21
-117.451
0
LINE
8
Black
10
106.868
20
-117.451
11
106.86
21
-117.441
0
LINE
8
Black
10
106.86
20
-117.441
11
106.849
21
-117.433
0
LINE
8
Black
10
106.849
20
-117.433
11
105.96
21
-116.544
0
LINE
8
Black
10
105.96
20
-116.544
11
105.952
21
-116.533
0
LINE
8
Black
10
105.952
20
-116.533
11
105.942
21
-116.525
0
LINE
8
Black
10
105.942
20
-116.525
11
105.923
21
-116.491
0
LINE
8
Black
10
105.923
20
-116.491
11
105.9
21
-116.459
0
LINE
8
Black
10
105.9
20
-116.459
11
105.897
21
-116.446
0
LINE
8
Black
10
105.897
20
-116.446
11
105.89
21
-116.435
0
LINE
8
Black
10
105.89
20
-116.435
11
105.883
21
-116.396
0
LINE
8
Black
10
105.883
20
-116.396
11
105.873
21
-116.358
0
LINE
8
Black
10
105.873
20
-116.358
11
105.874
21
-116.345
0
LINE
8
Black
10
105.874
20
-116.345
11
105.872
21
-116.332
0
LINE
8
Black
10
105.872
20
-116.332
11
105.872
21
-112.649
0
LINE
8
Black
10
105.872
20
-112.649
11
105.874
21
-112.636
0
LINE
8
Black
10
105.874
20
-112.636
11
105.873
21
-112.623
0
LINE
8
Black
10
105.873
20
-112.623
11
105.883
21
-112.585
0
LINE
8
Black
10
105.883
20
-112.585
11
105.89
21
-112.546
0
LINE
8
Black
10
105.89
20
-112.546
11
105.897
21
-112.535
0
LINE
8
Black
10
105.897
20
-112.535
11
105.9
21
-112.522
0
LINE
8
Black
10
105.9
20
-112.522
11
105.923
21
-112.49
0
LINE
8
Black
10
105.923
20
-112.49
11
105.942
21
-112.456
0
LINE
8
Black
10
105.942
20
-112.456
11
105.952
21
-112.448
0
LINE
8
Black
10
105.952
20
-112.448
11
105.96
21
-112.437
0
LINE
8
Black
10
105.96
20
-112.437
11
106.722
21
-111.675
0
LINE
8
Black
10
106.722
20
-111.675
11
106.733
21
-111.667
0
LINE
8
Black
10
106.733
20
-111.667
11
106.741
21
-111.657
0
LINE
8
Black
10
106.741
20
-111.657
11
106.775
21
-111.638
0
LINE
8
Black
10
106.775
20
-111.638
11
106.807
21
-111.615
0
LINE
8
Black
10
106.807
20
-111.615
11
106.82
21
-111.612
0
LINE
8
Black
10
106.82
20
-111.612
11
106.831
21
-111.605
0
LINE
8
Black
10
106.831
20
-111.605
11
106.87
21
-111.598
0
LINE
8
Black
10
106.87
20
-111.598
11
106.908
21
-111.588
0
LINE
8
Black
10
106.908
20
-111.588
11
106.921
21
-111.589
0
LINE
8
Black
10
106.921
20
-111.589
11
106.934
21
-111.587
0
LINE
8
Black
10
106.934
20
-111.587
11
107.401
21
-111.587
0
LINE
8
Black
10
107.401
20
-111.587
11
107.429
21
-111.51
0
LINE
8
Black
10
107.429
20
-111.51
11
107.598
21
-111.309
0
LINE
8
Black
10
107.598
20
-111.309
11
107.825
21
-111.178
0
LINE
8
Black
10
107.825
20
-111.178
11
108.083
21
-111.132
0
LINE
8
Black
10
108.083
20
-111.132
11
109.595
21
-111.132
0
LINE
8
Black
10
109.595
20
-111.132
11
109.853
21
-111.178
0
LINE
8
Black
10
109.853
20
-111.178
11
110.08
21
-111.309
0
LINE
8
Black
10
110.08
20
-111.309
11
110.249
21
-111.51
0
LINE
8
Black
10
110.249
20
-111.51
11
110.338
21
-111.756
0
LINE
8
Black
10
110.338
20
-111.756
11
110.338
21
-112.018
0
LINE
8
Black
10
110.338
20
-112.018
11
110.249
21
-112.265
0
LINE
8
Black
10
110.249
20
-112.265
11
110.08
21
-112.465
0
LINE
8
Black
10
110.08
20
-112.465
11
109.853
21
-112.596
0
LINE
8
Black
10
109.853
20
-112.596
11
109.595
21
-112.642
0
LINE
8
Black
10
109.595
20
-112.642
11
108.083
21
-112.642
0
LINE
8
Black
10
108.083
20
-112.642
11
107.825
21
-112.596
0
LINE
8
Black
10
107.825
20
-112.596
11
107.598
21
-112.465
0
LINE
8
Black
10
107.598
20
-112.465
11
107.429
21
-112.265
0
LINE
8
Black
10
107.429
20
-112.265
11
107.401
21
-112.187
0
LINE
8
Black
10
107.401
20
-112.187
11
107.058
21
-112.187
0
LINE
8
Black
10
107.058
20
-112.187
11
106.472
21
-112.773
0
LINE
8
Black
10
106.472
20
-112.773
11
106.472
21
-116.208
0
LINE
8
Black
10
106.472
20
-116.208
11
107.185
21
-116.921
0
LINE
8
Black
10
107.185
20
-116.921
11
107.401
21
-116.921
0
LINE
8
Black
10
107.401
20
-116.921
11
107.429
21
-116.844
0
LINE
8
Black
10
107.429
20
-116.844
11
107.598
21
-116.643
0
LINE
8
Black
10
107.598
20
-116.643
11
107.825
21
-116.512
0
LINE
8
Black
10
107.825
20
-116.512
11
108.083
21
-116.466
0
LINE
8
Black
10
108.083
20
-116.466
11
109.595
21
-116.466
0
LINE
8
Black
10
109.595
20
-116.466
11
109.853
21
-116.512
0
LINE
8
Black
10
109.853
20
-116.512
11
110.08
21
-116.643
0
LINE
8
Black
10
110.08
20
-116.643
11
110.249
21
-116.844
0
LINE
8
Black
10
110.249
20
-116.844
11
110.277
21
-116.921
0
LINE
8
Black
10
110.277
20
-116.921
11
111.975
21
-116.921
0
LINE
8
Black
10
111.975
20
-116.921
11
112.854
21
-115.514
0
LINE
8
Black
10
112.854
20
-115.514
11
112.854
21
-114.739
0
LINE
8
Black
10
112.854
20
-114.739
11
114.054
21
-114.739
0
LINE
8
Black
10
114.054
20
-114.739
11
114.054
21
-115.639
0
LINE
8
Black
10
114.054
20
-115.639
11
113.484
21
-115.639
0
LINE
8
Black
10
113.484
20
-115.639
11
112.682
21
-116.921
0
LINE
8
Black
10
112.682
20
-116.921
11
119.51
21
-116.921
0
LINE
8
Black
10
119.51
20
-116.921
11
119.803
21
-116.628
0
LINE
8
Black
10
119.803
20
-116.628
11
119.814
21
-116.62
0
LINE
8
Black
10
119.814
20
-116.62
11
119.822
21
-116.61
0
LINE
8
Black
10
119.822
20
-116.61
11
119.856
21
-116.591
0
LINE
8
Black
10
119.856
20
-116.591
11
119.888
21
-116.568
0
LINE
8
Black
10
119.888
20
-116.568
11
119.901
21
-116.565
0
LINE
8
Black
10
119.901
20
-116.565
11
119.912
21
-116.558
0
LINE
8
Black
10
119.912
20
-116.558
11
119.951
21
-116.551
0
LINE
8
Black
10
119.951
20
-116.551
11
119.989
21
-116.541
0
LINE
8
Black
10
119.989
20
-116.541
11
120.002
21
-116.542
0
LINE
8
Black
10
120.002
20
-116.542
11
120.015
21
-116.54
0
LINE
8
Black
10
120.015
20
-116.54
11
121.117
21
-116.54
0
LINE
8
Black
10
121.117
20
-116.54
11
121.145
21
-116.463
0
LINE
8
Black
10
121.145
20
-116.463
11
121.314
21
-116.262
0
LINE
8
Black
10
121.314
20
-116.262
11
121.541
21
-116.131
0
LINE
8
Black
10
121.541
20
-116.131
11
121.799
21
-116.085
0
LINE
8
Black
10
121.799
20
-116.085
11
123.311
21
-116.085
0
LINE
8
Black
10
123.311
20
-116.085
11
123.569
21
-116.131
0
LINE
8
Black
10
123.569
20
-116.131
11
123.796
21
-116.262
0
LINE
8
Black
10
123.796
20
-116.262
11
123.965
21
-116.463
0
LINE
8
Black
10
123.965
20
-116.463
11
124.054
21
-116.709
0
LINE
8
Black
10
124.054
20
-116.709
11
124.054
21
-116.971
0
LINE
8
Black
10
124.054
20
-116.971
11
123.965
21
-117.218
0
LINE
8
Black
10
123.965
20
-117.218
11
123.796
21
-117.418
0
LINE
8
Black
10
123.796
20
-117.418
11
123.569
21
-117.549
0
LINE
8
Black
10
123.569
20
-117.549
11
123.311
21
-117.595
0
LINE
8
Black
10
123.311
20
-117.595
11
121.799
21
-117.595
0
LINE
8
Black
10
121.799
20
-117.595
11
121.541
21
-117.549
0
LINE
8
Black
10
121.541
20
-117.549
11
121.314
21
-117.418
0
LINE
8
Black
10
121.314
20
-117.418
11
121.145
21
-117.218
0
LINE
8
Black
10
121.145
20
-117.218
11
121.117
21
-117.14
0
LINE
8
Black
10
121.117
20
-117.14
11
120.139
21
-117.14
0
LINE
8
Black
10
120.139
20
-117.14
11
119.846
21
-117.433
0
LINE
8
Black
10
119.846
20
-117.433
11
119.835
21
-117.441
0
LINE
8
Black
10
119.835
20
-117.441
11
119.827
21
-117.451
0
LINE
8
Black
10
119.827
20
-117.451
11
119.793
21
-117.47
0
LINE
8
Black
10
119.793
20
-117.47
11
119.761
21
-117.493
0
LINE
8
Black
10
119.761
20
-117.493
11
119.748
21
-117.496
0
LINE
8
Black
10
119.748
20
-117.496
11
119.737
21
-117.503
0
LINE
8
Black
10
119.737
20
-117.503
11
119.698
21
-117.51
0
LINE
8
Black
10
119.698
20
-117.51
11
119.66
21
-117.52
0
LINE
8
Black
10
119.66
20
-117.52
11
119.647
21
-117.519
0
LINE
8
Black
10
119.647
20
-117.519
11
119.634
21
-117.521
0
LINE
8
Black
10
119.634
20
-117.521
11
112.141
21
-117.521
0
LINE
8
Black
10
112.141
20
-117.521
11
110.277
21
-117.521
0
LINE
8
Black
10
110.277
20
-117.521
11
110.249
21
-117.599
0
LINE
8
Black
10
116.254
20
-112.718
11
115.954
21
-112.718
0
LINE
8
Black
10
115.954
20
-112.718
11
115.954
21
-114.687
0
LINE
8
Black
10
115.954
20
-114.687
11
117.163
21
-114.036
0
LINE
8
Black
10
117.163
20
-114.036
11
117.183
21
-114.029
0
LINE
8
Black
10
117.183
20
-114.029
11
117.202
21
-114.018
0
LINE
8
Black
10
117.202
20
-114.018
11
117.233
21
-114.013
0
LINE
8
Black
10
117.233
20
-114.013
11
117.262
21
-114.003
0
LINE
8
Black
10
117.262
20
-114.003
11
117.284
21
-114.004
0
LINE
8
Black
10
117.284
20
-114.004
11
117.305
21
-114
0
LINE
8
Black
10
117.305
20
-114
11
121.117
21
-114
0
LINE
8
Black
10
121.117
20
-114
11
121.145
21
-113.923
0
LINE
8
Black
10
121.145
20
-113.923
11
121.314
21
-113.722
0
LINE
8
Black
10
121.314
20
-113.722
11
121.541
21
-113.591
0
LINE
8
Black
10
121.541
20
-113.591
11
121.799
21
-113.545
0
LINE
8
Black
10
121.799
20
-113.545
11
123.311
21
-113.545
0
LINE
8
Black
10
123.311
20
-113.545
11
123.569
21
-113.591
0
LINE
8
Black
10
123.569
20
-113.591
11
123.796
21
-113.722
0
LINE
8
Black
10
123.796
20
-113.722
11
123.965
21
-113.923
0
LINE
8
Black
10
123.965
20
-113.923
11
124.054
21
-114.169
0
LINE
8
Black
10
124.054
20
-114.169
11
124.054
21
-114.431
0
LINE
8
Black
10
124.054
20
-114.431
11
123.965
21
-114.678
0
LINE
8
Black
10
123.965
20
-114.678
11
123.796
21
-114.878
0
LINE
8
Black
10
123.796
20
-114.878
11
123.569
21
-115.009
0
LINE
8
Black
10
123.569
20
-115.009
11
123.311
21
-115.055
0
LINE
8
Black
10
123.311
20
-115.055
11
121.799
21
-115.055
0
LINE
8
Black
10
121.799
20
-115.055
11
121.541
21
-115.009
0
LINE
8
Black
10
121.541
20
-115.009
11
121.314
21
-114.878
0
LINE
8
Black
10
121.314
20
-114.878
11
121.145
21
-114.678
0
LINE
8
Black
10
121.145
20
-114.678
11
121.117
21
-114.6
0
LINE
8
Black
10
121.117
20
-114.6
11
117.381
21
-114.6
0
LINE
8
Black
10
117.381
20
-114.6
11
116.254
21
-115.207
0
LINE
8
Black
10
116.254
20
-115.207
11
116.254
21
-115.639
0
LINE
8
Black
10
116.254
20
-115.639
11
115.054
21
-115.639
0
LINE
8
Black
10
115.054
20
-115.639
11
115.054
21
-114.739
0
LINE
8
Black
10
115.054
20
-114.739
11
115.354
21
-114.739
0
LINE
8
Black
10
115.354
20
-114.739
11
115.354
21
-112.718
0
LINE
8
Black
10
115.354
20
-112.718
11
115.054
21
-112.718
0
LINE
8
Black
10
115.054
20
-112.718
11
115.054
21
-111.818
0
LINE
8
Black
10
115.054
20
-111.818
11
116.254
21
-111.818
0
LINE
8
Black
10
116.254
20
-111.818
11
116.254
21
-112.718
0
LINE
8
Black
10
113.94
20
-106.362
11
113.94
21
-106.162
0
LINE
8
Black
10
113.94
20
-106.162
11
115
21
-106.162
0
LINE
8
Black
10
115
20
-106.162
11
115
21
-106.812
0
LINE
8
Black
10
115
20
-106.812
11
114.338
21
-106.812
0
LINE
8
Black
10
114.338
20
-106.812
11
111.591
21
-109.559
0
LINE
8
Black
10
111.591
20
-109.559
11
111.58
21
-109.567
0
LINE
8
Black
10
111.58
20
-109.567
11
111.572
21
-109.577
0
LINE
8
Black
10
111.572
20
-109.577
11
111.538
21
-109.596
0
LINE
8
Black
10
111.538
20
-109.596
11
111.506
21
-109.619
0
LINE
8
Black
10
111.506
20
-109.619
11
111.493
21
-109.622
0
LINE
8
Black
10
111.493
20
-109.622
11
111.482
21
-109.629
0
LINE
8
Black
10
111.482
20
-109.629
11
111.455
21
-109.634
0
LINE
8
Black
10
111.455
20
-109.634
11
111.972
21
-110.151
0
LINE
8
Black
10
111.972
20
-110.151
11
111.98
21
-110.162
0
LINE
8
Black
10
111.98
20
-110.162
11
111.99
21
-110.17
0
LINE
8
Black
10
111.99
20
-110.17
11
112.009
21
-110.204
0
LINE
8
Black
10
112.009
20
-110.204
11
112.032
21
-110.236
0
LINE
8
Black
10
112.032
20
-110.236
11
112.035
21
-110.249
0
LINE
8
Black
10
112.035
20
-110.249
11
112.042
21
-110.26
0
LINE
8
Black
10
112.042
20
-110.26
11
112.049
21
-110.299
0
LINE
8
Black
10
112.049
20
-110.299
11
112.059
21
-110.337
0
LINE
8
Black
10
112.059
20
-110.337
11
112.058
21
-110.35
0
LINE
8
Black
10
112.058
20
-110.35
11
112.06
21
-110.363
0
LINE
8
Black
10
112.06
20
-110.363
11
112.06
21
-111.968
0
LINE
8
Black
10
112.06
20
-111.968
11
112.854
21
-111.968
0
LINE
8
Black
10
112.854
20
-111.968
11
112.854
21
-111.818
0
LINE
8
Black
10
112.854
20
-111.818
11
114.054
21
-111.818
0
LINE
8
Black
10
114.054
20
-111.818
11
114.054
21
-112.718
0
LINE
8
Black
10
114.054
20
-112.718
11
112.854
21
-112.718
0
LINE
8
Black
10
112.854
20
-112.718
11
112.854
21
-112.568
0
LINE
8
Black
10
112.854
20
-112.568
11
112.06
21
-112.568
0
LINE
8
Black
10
112.06
20
-112.568
11
112.06
21
-113.538
0
LINE
8
Black
10
112.06
20
-113.538
11
112.058
21
-113.551
0
LINE
8
Black
10
112.058
20
-113.551
11
112.059
21
-113.564
0
LINE
8
Black
10
112.059
20
-113.564
11
112.049
21
-113.602
0
LINE
8
Black
10
112.049
20
-113.602
11
112.042
21
-113.641
0
LINE
8
Black
10
112.042
20
-113.641
11
112.035
21
-113.652
0
LINE
8
Black
10
112.035
20
-113.652
11
112.032
21
-113.665
0
LINE
8
Black
10
112.032
20
-113.665
11
112.009
21
-113.697
0
LINE
8
Black
10
112.009
20
-113.697
11
111.99
21
-113.731
0
LINE
8
Black
10
111.99
20
-113.731
11
111.98
21
-113.739
0
LINE
8
Black
10
111.98
20
-113.739
11
111.972
21
-113.75
0
LINE
8
Black
10
111.972
20
-113.75
11
110.829
21
-114.893
0
LINE
8
Black
10
110.829
20
-114.893
11
110.818
21
-114.901
0
LINE
8
Black
10
110.818
20
-114.901
11
110.81
21
-114.911
0
LINE
8
Black
10
110.81
20
-114.911
11
110.776
21
-114.93
0
LINE
8
Black
10
110.776
20
-114.93
11
110.744
21
-114.953
0
LINE
8
Black
10
110.744
20
-114.953
11
110.731
21
-114.956
0
LINE
8
Black
10
110.731
20
-114.956
11
110.72
21
-114.963
0
LINE
8
Black
10
110.72
20
-114.963
11
110.681
21
-114.97
0
LINE
8
Black
10
110.681
20
-114.97
11
110.643
21
-114.98
0
LINE
8
Black
10
110.643
20
-114.98
11
110.63
21
-114.979
0
LINE
8
Black
10
110.63
20
-114.979
11
110.617
21
-114.981
0
LINE
8
Black
10
110.617
20
-114.981
11
110.277
21
-114.981
0
LINE
8
Black
10
110.277
20
-114.981
11
110.249
21
-115.059
0
LINE
8
Black
10
110.249
20
-115.059
11
110.08
21
-115.259
0
LINE
8
Black
10
110.08
20
-115.259
11
109.853
21
-115.39
0
LINE
8
Black
10
109.853
20
-115.39
11
109.595
21
-115.436
0
LINE
8
Black
10
109.595
20
-115.436
11
108.083
21
-115.436
0
LINE
8
Black
10
108.083
20
-115.436
11
107.825
21
-115.39
0
LINE
8
Black
10
107.825
20
-115.39
11
107.598
21
-115.259
0
LINE
8
Black
10
107.598
20
-115.259
11
107.429
21
-115.059
0
LINE
8
Black
10
107.429
20
-115.059
11
107.34
21
-114.812
0
LINE
8
Black
10
107.34
20
-114.812
11
107.34
21
-114.55
0
LINE
8
Black
10
107.34
20
-114.55
11
107.429
21
-114.304
0
LINE
8
Black
10
107.429
20
-114.304
11
107.598
21
-114.103
0
LINE
8
Black
10
107.598
20
-114.103
11
107.825
21
-113.972
0
LINE
8
Black
10
107.825
20
-113.972
11
108.083
21
-113.926
0
LINE
8
Black
10
108.083
20
-113.926
11
109.595
21
-113.926
0
LINE
8
Black
10
109.595
20
-113.926
11
109.853
21
-113.972
0
LINE
8
Black
10
109.853
20
-113.972
11
110.08
21
-114.103
0
LINE
8
Black
10
110.08
20
-114.103
11
110.249
21
-114.304
0
LINE
8
Black
10
110.249
20
-114.304
11
110.277
21
-114.381
0
LINE
8
Black
10
110.277
20
-114.381
11
110.493
21
-114.381
0
LINE
8
Black
10
110.493
20
-114.381
11
111.46
21
-113.414
0
LINE
8
Black
10
111.46
20
-113.414
11
111.46
21
-112.268
0
LINE
8
Black
10
111.46
20
-112.268
11
111.46
21
-110.487
0
LINE
8
Black
10
111.46
20
-110.487
11
110.62
21
-109.647
0
LINE
8
Black
10
110.62
20
-109.647
11
110.277
21
-109.647
0
LINE
8
Black
10
110.277
20
-109.647
11
110.249
21
-109.725
0
LINE
8
Black
10
110.249
20
-109.725
11
110.08
21
-109.925
0
LINE
8
Black
10
110.08
20
-109.925
11
109.853
21
-110.056
0
LINE
8
Black
10
109.853
20
-110.056
11
109.595
21
-110.102
0
LINE
8
Black
10
109.595
20
-110.102
11
108.083
21
-110.102
0
LINE
8
Black
10
108.083
20
-110.102
11
107.825
21
-110.056
0
LINE
8
Black
10
107.825
20
-110.056
11
107.598
21
-109.925
0
LINE
8
Black
10
107.598
20
-109.925
11
107.429
21
-109.725
0
LINE
8
Black
10
107.429
20
-109.725
11
107.401
21
-109.647
0
LINE
8
Black
10
107.401
20
-109.647
11
107.188
21
-109.647
0
LINE
8
Black
10
107.188
20
-109.647
11
107.175
21
-109.645
0
LINE
8
Black
10
107.175
20
-109.645
11
107.162
21
-109.646
0
LINE
8
Black
10
107.162
20
-109.646
11
107.124
21
-109.636
0
LINE
8
Black
10
107.124
20
-109.636
11
107.085
21
-109.629
0
LINE
8
Black
10
107.085
20
-109.629
11
107.074
21
-109.622
0
LINE
8
Black
10
107.074
20
-109.622
11
107.061
21
-109.619
0
LINE
8
Black
10
107.061
20
-109.619
11
107.029
21
-109.596
0
LINE
8
Black
10
107.029
20
-109.596
11
106.995
21
-109.577
0
LINE
8
Black
10
106.995
20
-109.577
11
106.987
21
-109.567
0
LINE
8
Black
10
106.987
20
-109.567
11
106.976
21
-109.559
0
LINE
8
Black
10
106.976
20
-109.559
11
106.087
21
-108.67
0
LINE
8
Black
10
106.087
20
-108.67
11
106.079
21
-108.659
0
LINE
8
Black
10
106.079
20
-108.659
11
106.069
21
-108.651
0
LINE
8
Black
10
106.069
20
-108.651
11
106.05
21
-108.617
0
LINE
8
Black
10
106.05
20
-108.617
11
106.027
21
-108.585
0
LINE
8
Black
10
106.027
20
-108.585
11
106.024
21
-108.572
0
LINE
8
Black
10
106.024
20
-108.572
11
106.017
21
-108.561
0
LINE
8
Black
10
106.017
20
-108.561
11
106.01
21
-108.522
0
LINE
8
Black
10
106.01
20
-108.522
11
106
21
-108.484
0
LINE
8
Black
10
106
20
-108.484
11
106.001
21
-108.471
0
LINE
8
Black
10
106.001
20
-108.471
11
105.999
21
-108.458
0
LINE
8
Black
10
105.999
20
-108.458
11
105.999
21
-105.029
0
LINE
8
Black
10
105.999
20
-105.029
11
106.001
21
-105.016
0
LINE
8
Black
10
106.001
20
-105.016
11
106
21
-105.003
0
LINE
8
Black
10
106
20
-105.003
11
106.01
21
-104.965
0
LINE
8
Black
10
106.01
20
-104.965
11
106.017
21
-104.926
0
LINE
8
Black
10
106.017
20
-104.926
11
106.024
21
-104.915
0
LINE
8
Black
10
106.024
20
-104.915
11
106.027
21
-104.902
0
LINE
8
Black
10
106.027
20
-104.902
11
106.05
21
-104.87
0
LINE
8
Black
10
106.05
20
-104.87
11
106.069
21
-104.836
0
LINE
8
Black
10
106.069
20
-104.836
11
106.079
21
-104.828
0
LINE
8
Black
10
106.079
20
-104.828
11
106.087
21
-104.817
0
LINE
8
Black
10
106.087
20
-104.817
11
106.849
21
-104.055
0
LINE
8
Black
10
106.849
20
-104.055
11
106.86
21
-104.047
0
LINE
8
Black
10
106.86
20
-104.047
11
106.868
21
-104.037
0
LINE
8
Black
10
106.868
20
-104.037
11
106.902
21
-104.018
0
LINE
8
Black
10
106.902
20
-104.018
11
106.934
21
-103.995
0
LINE
8
Black
10
106.934
20
-103.995
11
106.947
21
-103.992
0
LINE
8
Black
10
106.947
20
-103.992
11
106.958
21
-103.985
0
LINE
8
Black
10
106.958
20
-103.985
11
106.997
21
-103.978
0
LINE
8
Black
10
106.997
20
-103.978
11
107.035
21
-103.968
0
LINE
8
Black
10
107.035
20
-103.968
11
107.048
21
-103.969
0
LINE
8
Black
10
107.048
20
-103.969
11
107.061
21
-103.967
0
LINE
8
Black
10
107.061
20
-103.967
11
107.401
21
-103.967
0
LINE
8
Black
10
107.401
20
-103.967
11
107.429
21
-103.89
0
LINE
8
Black
10
107.429
20
-103.89
11
107.598
21
-103.689
0
LINE
8
Black
10
107.598
20
-103.689
11
107.825
21
-103.558
0
LINE
8
Black
10
107.825
20
-103.558
11
108.083
21
-103.512
0
LINE
8
Black
10
108.083
20
-103.512
11
109.595
21
-103.512
0
LINE
8
Black
10
109.595
20
-103.512
11
109.853
21
-103.558
0
LINE
8
Black
10
109.853
20
-103.558
11
110.08
21
-103.689
0
LINE
8
Black
10
110.08
20
-103.689
11
110.249
21
-103.89
0
LINE
8
Black
10
110.249
20
-103.89
11
110.277
21
-103.967
0
LINE
8
Black
10
110.277
20
-103.967
11
111.44
21
-103.967
0
LINE
8
Black
10
111.44
20
-103.967
11
111.453
21
-103.969
0
LINE
8
Black
10
111.453
20
-103.969
11
111.466
21
-103.968
0
LINE
8
Black
10
111.466
20
-103.968
11
111.504
21
-103.978
0
LINE
8
Black
10
111.504
20
-103.978
11
111.543
21
-103.985
0
LINE
8
Black
10
111.543
20
-103.985
11
111.546
21
-103.987
0
LINE
8
Black
10
111.546
20
-103.987
11
111.743
21
-103.987
0
LINE
8
Black
10
111.743
20
-103.987
11
112.056
21
-103.674
0
LINE
8
Black
10
112.056
20
-103.674
11
112.067
21
-103.666
0
LINE
8
Black
10
112.067
20
-103.666
11
112.075
21
-103.656
0
LINE
8
Black
10
112.075
20
-103.656
11
112.109
21
-103.637
0
LINE
8
Black
10
112.109
20
-103.637
11
112.141
21
-103.614
0
LINE
8
Black
10
112.141
20
-103.614
11
112.154
21
-103.611
0
LINE
8
Black
10
112.154
20
-103.611
11
112.165
21
-103.604
0
LINE
8
Black
10
112.165
20
-103.604
11
112.204
21
-103.597
0
LINE
8
Black
10
112.204
20
-103.597
11
112.242
21
-103.587
0
LINE
8
Black
10
112.242
20
-103.587
11
112.255
21
-103.588
0
LINE
8
Black
10
112.255
20
-103.588
11
112.268
21
-103.586
0
LINE
8
Black
10
112.268
20
-103.586
11
114.173
21
-103.586
0
LINE
8
Black
10
114.173
20
-103.586
11
114.186
21
-103.588
0
LINE
8
Black
10
114.186
20
-103.588
11
114.199
21
-103.587
0
LINE
8
Black
10
114.199
20
-103.587
11
114.237
21
-103.597
0
LINE
8
Black
10
114.237
20
-103.597
11
114.276
21
-103.604
0
LINE
8
Black
10
114.276
20
-103.604
11
114.287
21
-103.611
0
LINE
8
Black
10
114.287
20
-103.611
11
114.3
21
-103.614
0
LINE
8
Black
10
114.3
20
-103.614
11
114.332
21
-103.637
0
LINE
8
Black
10
114.332
20
-103.637
11
114.366
21
-103.656
0
LINE
8
Black
10
114.366
20
-103.656
11
114.374
21
-103.666
0
LINE
8
Black
10
114.374
20
-103.666
11
114.385
21
-103.674
0
LINE
8
Black
10
114.385
20
-103.674
11
114.682
21
-103.971
0
LINE
8
Black
10
114.682
20
-103.971
11
114.69
21
-103.982
0
LINE
8
Black
10
114.69
20
-103.982
11
114.7
21
-103.99
0
LINE
8
Black
10
114.7
20
-103.99
11
114.719
21
-104.024
0
LINE
8
Black
10
114.719
20
-104.024
11
114.742
21
-104.056
0
LINE
8
Black
10
114.742
20
-104.056
11
114.745
21
-104.069
0
LINE
8
Black
10
114.745
20
-104.069
11
114.752
21
-104.08
0
LINE
8
Black
10
114.752
20
-104.08
11
114.759
21
-104.119
0
LINE
8
Black
10
114.759
20
-104.119
11
114.769
21
-104.157
0
LINE
8
Black
10
114.769
20
-104.157
11
114.768
21
-104.17
0
LINE
8
Black
10
114.768
20
-104.17
11
114.77
21
-104.183
0
LINE
8
Black
10
114.77
20
-104.183
11
114.77
21
-104.262
0
LINE
8
Black
10
114.77
20
-104.262
11
115
21
-104.262
0
LINE
8
Black
10
115
20
-104.262
11
115
21
-104.912
0
LINE
8
Black
10
115
20
-104.912
11
113.94
21
-104.912
0
LINE
8
Black
10
113.94
20
-104.912
11
113.94
21
-104.262
0
LINE
8
Black
10
113.94
20
-104.262
11
114.125
21
-104.262
0
LINE
8
Black
10
114.125
20
-104.262
11
114.049
21
-104.186
0
LINE
8
Black
10
114.049
20
-104.186
11
112.392
21
-104.186
0
LINE
8
Black
10
112.392
20
-104.186
11
112.135
21
-104.443
0
LINE
8
Black
10
112.135
20
-104.443
11
112.135
21
-105.187
0
LINE
8
Black
10
112.135
20
-105.187
11
111.385
21
-105.187
0
LINE
8
Black
10
111.385
20
-105.187
11
111.385
21
-104.636
0
LINE
8
Black
10
111.385
20
-104.636
11
111.316
21
-104.567
0
LINE
8
Black
10
111.316
20
-104.567
11
110.277
21
-104.567
0
LINE
8
Black
10
110.277
20
-104.567
11
110.249
21
-104.645
0
LINE
8
Black
10
110.249
20
-104.645
11
110.08
21
-104.845
0
LINE
8
Black
10
110.08
20
-104.845
11
109.853
21
-104.976
0
LINE
8
Black
10
109.853
20
-104.976
11
109.595
21
-105.022
0
LINE
8
Black
10
109.595
20
-105.022
11
108.083
21
-105.022
0
LINE
8
Black
10
108.083
20
-105.022
11
107.825
21
-104.976
0
LINE
8
Black
10
107.825
20
-104.976
11
107.598
21
-104.845
0
LINE
8
Black
10
107.598
20
-104.845
11
107.429
21
-104.645
0
LINE
8
Black
10
107.429
20
-104.645
11
107.401
21
-104.567
0
LINE
8
Black
10
107.401
20
-104.567
11
107.185
21
-104.567
0
LINE
8
Black
10
107.185
20
-104.567
11
106.599
21
-105.153
0
LINE
8
Black
10
106.599
20
-105.153
11
106.599
21
-108.334
0
LINE
8
Black
10
106.599
20
-108.334
11
107.312
21
-109.047
0
LINE
8
Black
10
107.312
20
-109.047
11
107.401
21
-109.047
0
LINE
8
Black
10
107.401
20
-109.047
11
107.429
21
-108.97
0
LINE
8
Black
10
107.429
20
-108.97
11
107.598
21
-108.769
0
LINE
8
Black
10
107.598
20
-108.769
11
107.825
21
-108.638
0
LINE
8
Black
10
107.825
20
-108.638
11
108.083
21
-108.592
0
LINE
8
Black
10
108.083
20
-108.592
11
109.595
21
-108.592
0
LINE
8
Black
10
109.595
20
-108.592
11
109.853
21
-108.638
0
LINE
8
Black
10
109.853
20
-108.638
11
110.08
21
-108.769
0
LINE
8
Black
10
110.08
20
-108.769
11
110.249
21
-108.97
0
LINE
8
Black
10
110.249
20
-108.97
11
110.277
21
-109.047
0
LINE
8
Black
10
110.277
20
-109.047
11
110.744
21
-109.047
0
LINE
8
Black
10
110.744
20
-109.047
11
111.255
21
-109.047
0
LINE
8
Black
10
111.255
20
-109.047
11
113.94
21
-106.362
0
LINE
8
Black
10
142.238
20
-110.162
11
142.465
21
-110.293
0
LINE
8
Black
10
142.465
20
-110.293
11
142.634
21
-110.494
0
LINE
8
Black
10
142.634
20
-110.494
11
142.723
21
-110.74
0
LINE
8
Black
10
142.723
20
-110.74
11
142.723
21
-111.002
0
LINE
8
Black
10
142.723
20
-111.002
11
142.634
21
-111.249
0
LINE
8
Black
10
142.634
20
-111.249
11
142.465
21
-111.449
0
LINE
8
Black
10
142.465
20
-111.449
11
142.238
21
-111.58
0
LINE
8
Black
10
142.238
20
-111.58
11
141.98
21
-111.626
0
LINE
8
Black
10
141.98
20
-111.626
11
140.468
21
-111.626
0
LINE
8
Black
10
140.468
20
-111.626
11
140.21
21
-111.58
0
LINE
8
Black
10
140.21
20
-111.58
11
139.983
21
-111.449
0
LINE
8
Black
10
139.983
20
-111.449
11
139.814
21
-111.249
0
LINE
8
Black
10
139.814
20
-111.249
11
139.786
21
-111.171
0
LINE
8
Black
10
139.786
20
-111.171
11
136.086
21
-111.171
0
LINE
8
Black
10
136.086
20
-111.171
11
136.086
21
-111.682
0
LINE
8
Black
10
136.086
20
-111.682
11
135.46
21
-111.682
0
LINE
8
Black
10
135.46
20
-111.682
11
134.916
21
-112.226
0
LINE
8
Black
10
134.916
20
-112.226
11
134.905
21
-112.234
0
LINE
8
Black
10
134.905
20
-112.234
11
134.897
21
-112.244
0
LINE
8
Black
10
134.897
20
-112.244
11
134.863
21
-112.263
0
LINE
8
Black
10
134.863
20
-112.263
11
134.831
21
-112.286
0
LINE
8
Black
10
134.831
20
-112.286
11
134.818
21
-112.289
0
LINE
8
Black
10
134.818
20
-112.289
11
134.807
21
-112.296
0
LINE
8
Black
10
134.807
20
-112.296
11
134.768
21
-112.303
0
LINE
8
Black
10
134.768
20
-112.303
11
134.73
21
-112.313
0
LINE
8
Black
10
134.73
20
-112.313
11
134.717
21
-112.312
0
LINE
8
Black
10
134.717
20
-112.312
11
134.704
21
-112.314
0
LINE
8
Black
10
134.704
20
-112.314
11
131.613
21
-112.314
0
LINE
8
Black
10
131.613
20
-112.314
11
131.585
21
-112.392
0
LINE
8
Black
10
131.585
20
-112.392
11
131.416
21
-112.592
0
LINE
8
Black
10
131.416
20
-112.592
11
131.189
21
-112.723
0
LINE
8
Black
10
131.189
20
-112.723
11
130.931
21
-112.769
0
LINE
8
Black
10
130.931
20
-112.769
11
129.419
21
-112.769
0
LINE
8
Black
10
129.419
20
-112.769
11
129.161
21
-112.723
0
LINE
8
Black
10
129.161
20
-112.723
11
128.934
21
-112.592
0
LINE
8
Black
10
128.934
20
-112.592
11
128.765
21
-112.392
0
LINE
8
Black
10
128.765
20
-112.392
11
128.676
21
-112.145
0
LINE
8
Black
10
128.676
20
-112.145
11
128.676
21
-111.883
0
LINE
8
Black
10
128.676
20
-111.883
11
128.765
21
-111.637
0
LINE
8
Black
10
128.765
20
-111.637
11
128.934
21
-111.436
0
LINE
8
Black
10
128.934
20
-111.436
11
129.161
21
-111.305
0
LINE
8
Black
10
129.161
20
-111.305
11
129.419
21
-111.259
0
LINE
8
Black
10
129.419
20
-111.259
11
130.931
21
-111.259
0
LINE
8
Black
10
130.931
20
-111.259
11
131.189
21
-111.305
0
LINE
8
Black
10
131.189
20
-111.305
11
131.416
21
-111.436
0
LINE
8
Black
10
131.416
20
-111.436
11
131.585
21
-111.637
0
LINE
8
Black
10
131.585
20
-111.637
11
131.613
21
-111.714
0
LINE
8
Black
10
131.613
20
-111.714
11
134.58
21
-111.714
0
LINE
8
Black
10
134.58
20
-111.714
11
135.186
21
-111.108
0
LINE
8
Black
10
135.186
20
-111.108
11
135.186
21
-110.482
0
LINE
8
Black
10
135.186
20
-110.482
11
136.086
21
-110.482
0
LINE
8
Black
10
136.086
20
-110.482
11
136.086
21
-110.571
0
LINE
8
Black
10
136.086
20
-110.571
11
139.786
21
-110.571
0
LINE
8
Black
10
139.786
20
-110.571
11
139.814
21
-110.494
0
LINE
8
Black
10
139.814
20
-110.494
11
139.983
21
-110.293
0
LINE
8
Black
10
139.983
20
-110.293
11
140.21
21
-110.162
0
LINE
8
Black
10
140.21
20
-110.162
11
140.468
21
-110.116
0
LINE
8
Black
10
140.468
20
-110.116
11
141.98
21
-110.116
0
LINE
8
Black
10
141.98
20
-110.116
11
142.238
21
-110.162
0
LINE
8
Black
10
123.569
20
-103.431
11
123.796
21
-103.562
0
LINE
8
Black
10
123.796
20
-103.562
11
123.965
21
-103.763
0
LINE
8
Black
10
123.965
20
-103.763
11
124.054
21
-104.009
0
LINE
8
Black
10
124.054
20
-104.009
11
124.054
21
-104.271
0
LINE
8
Black
10
124.054
20
-104.271
11
123.965
21
-104.518
0
LINE
8
Black
10
123.965
20
-104.518
11
123.796
21
-104.718
0
LINE
8
Black
10
123.796
20
-104.718
11
123.569
21
-104.849
0
LINE
8
Black
10
123.569
20
-104.849
11
123.311
21
-104.895
0
LINE
8
Black
10
123.311
20
-104.895
11
122.855
21
-104.895
0
LINE
8
Black
10
122.855
20
-104.895
11
122.855
21
-105.925
0
LINE
8
Black
10
122.855
20
-105.925
11
123.311
21
-105.925
0
LINE
8
Black
10
123.311
20
-105.925
11
123.569
21
-105.971
0
LINE
8
Black
10
123.569
20
-105.971
11
123.796
21
-106.102
0
LINE
8
Black
10
123.796
20
-106.102
11
123.965
21
-106.303
0
LINE
8
Black
10
123.965
20
-106.303
11
124.054
21
-106.549
0
LINE
8
Black
10
124.054
20
-106.549
11
124.054
21
-106.811
0
LINE
8
Black
10
124.054
20
-106.811
11
123.965
21
-107.058
0
LINE
8
Black
10
123.965
20
-107.058
11
123.796
21
-107.258
0
LINE
8
Black
10
123.796
20
-107.258
11
123.569
21
-107.389
0
LINE
8
Black
10
123.569
20
-107.389
11
123.311
21
-107.435
0
LINE
8
Black
10
123.311
20
-107.435
11
122.855
21
-107.435
0
LINE
8
Black
10
122.855
20
-107.435
11
122.855
21
-108.465
0
LINE
8
Black
10
122.855
20
-108.465
11
123.311
21
-108.465
0
LINE
8
Black
10
123.311
20
-108.465
11
123.569
21
-108.511
0
LINE
8
Black
10
123.569
20
-108.511
11
123.796
21
-108.642
0
LINE
8
Black
10
123.796
20
-108.642
11
123.965
21
-108.843
0
LINE
8
Black
10
123.965
20
-108.843
11
124.054
21
-109.089
0
LINE
8
Black
10
124.054
20
-109.089
11
124.054
21
-109.351
0
LINE
8
Black
10
124.054
20
-109.351
11
123.965
21
-109.598
0
LINE
8
Black
10
123.965
20
-109.598
11
123.796
21
-109.798
0
LINE
8
Black
10
123.796
20
-109.798
11
123.569
21
-109.929
0
LINE
8
Black
10
123.569
20
-109.929
11
123.311
21
-109.975
0
LINE
8
Black
10
123.311
20
-109.975
11
122.855
21
-109.975
0
LINE
8
Black
10
122.855
20
-109.975
11
122.855
21
-111.005
0
LINE
8
Black
10
122.855
20
-111.005
11
123.311
21
-111.005
0
LINE
8
Black
10
123.311
20
-111.005
11
123.569
21
-111.051
0
LINE
8
Black
10
123.569
20
-111.051
11
123.796
21
-111.182
0
LINE
8
Black
10
123.796
20
-111.182
11
123.965
21
-111.383
0
LINE
8
Black
10
123.965
20
-111.383
11
124.054
21
-111.629
0
LINE
8
Black
10
124.054
20
-111.629
11
124.054
21
-111.891
0
LINE
8
Black
10
124.054
20
-111.891
11
123.965
21
-112.138
0
LINE
8
Black
10
123.965
20
-112.138
11
123.796
21
-112.338
0
LINE
8
Black
10
123.796
20
-112.338
11
123.569
21
-112.469
0
LINE
8
Black
10
123.569
20
-112.469
11
123.311
21
-112.515
0
LINE
8
Black
10
123.311
20
-112.515
11
121.799
21
-112.515
0
LINE
8
Black
10
121.799
20
-112.515
11
121.541
21
-112.469
0
LINE
8
Black
10
121.541
20
-112.469
11
121.314
21
-112.338
0
LINE
8
Black
10
121.314
20
-112.338
11
121.145
21
-112.138
0
LINE
8
Black
10
121.145
20
-112.138
11
121.056
21
-111.891
0
LINE
8
Black
10
121.056
20
-111.891
11
121.056
21
-111.629
0
LINE
8
Black
10
121.056
20
-111.629
11
121.145
21
-111.383
0
LINE
8
Black
10
121.145
20
-111.383
11
121.314
21
-111.182
0
LINE
8
Black
10
121.314
20
-111.182
11
121.541
21
-111.051
0
LINE
8
Black
10
121.541
20
-111.051
11
121.799
21
-111.005
0
LINE
8
Black
10
121.799
20
-111.005
11
122.255
21
-111.005
0
LINE
8
Black
10
122.255
20
-111.005
11
122.255
21
-109.975
0
LINE
8
Black
10
122.255
20
-109.975
11
121.799
21
-109.975
0
LINE
8
Black
10
121.799
20
-109.975
11
121.541
21
-109.929
0
LINE
8
Black
10
121.541
20
-109.929
11
121.314
21
-109.798
0
LINE
8
Black
10
121.314
20
-109.798
11
121.145
21
-109.598
0
LINE
8
Black
10
121.145
20
-109.598
11
121.056
21
-109.351
0
LINE
8
Black
10
121.056
20
-109.351
11
121.056
21
-109.089
0
LINE
8
Black
10
121.056
20
-109.089
11
121.145
21
-108.843
0
LINE
8
Black
10
121.145
20
-108.843
11
121.314
21
-108.642
0
LINE
8
Black
10
121.314
20
-108.642
11
121.541
21
-108.511
0
LINE
8
Black
10
121.541
20
-108.511
11
121.799
21
-108.465
0
LINE
8
Black
10
121.799
20
-108.465
11
122.255
21
-108.465
0
LINE
8
Black
10
122.255
20
-108.465
11
122.255
21
-107.435
0
LINE
8
Black
10
122.255
20
-107.435
11
121.799
21
-107.435
0
LINE
8
Black
10
121.799
20
-107.435
11
121.541
21
-107.389
0
LINE
8
Black
10
121.541
20
-107.389
11
121.314
21
-107.258
0
LINE
8
Black
10
121.314
20
-107.258
11
121.145
21
-107.058
0
LINE
8
Black
10
121.145
20
-107.058
11
121.056
21
-106.811
0
LINE
8
Black
10
121.056
20
-106.811
11
121.056
21
-106.549
0
LINE
8
Black
10
121.056
20
-106.549
11
121.145
21
-106.303
0
LINE
8
Black
10
121.145
20
-106.303
11
121.314
21
-106.102
0
LINE
8
Black
10
121.314
20
-106.102
11
121.541
21
-105.971
0
LINE
8
Black
10
121.541
20
-105.971
11
121.799
21
-105.925
0
LINE
8
Black
10
121.799
20
-105.925
11
122.255
21
-105.925
0
LINE
8
Black
10
122.255
20
-105.925
11
122.255
21
-104.895
0
LINE
8
Black
10
122.255
20
-104.895
11
121.799
21
-104.895
0
LINE
8
Black
10
121.799
20
-104.895
11
121.541
21
-104.849
0
LINE
8
Black
10
121.541
20
-104.849
11
121.314
21
-104.718
0
LINE
8
Black
10
121.314
20
-104.718
11
121.145
21
-104.518
0
LINE
8
Black
10
121.145
20
-104.518
11
121.117
21
-104.44
0
LINE
8
Black
10
121.117
20
-104.44
11
120.52
21
-104.44
0
LINE
8
Black
10
120.52
20
-104.44
11
120.161
21
-104.799
0
LINE
8
Black
10
120.161
20
-104.799
11
120.15
21
-104.807
0
LINE
8
Black
10
120.15
20
-104.807
11
120.142
21
-104.817
0
LINE
8
Black
10
120.142
20
-104.817
11
120.108
21
-104.836
0
LINE
8
Black
10
120.108
20
-104.836
11
120.076
21
-104.859
0
LINE
8
Black
10
120.076
20
-104.859
11
120.063
21
-104.862
0
LINE
8
Black
10
120.063
20
-104.862
11
120.052
21
-104.869
0
LINE
8
Black
10
120.052
20
-104.869
11
120.013
21
-104.876
0
LINE
8
Black
10
120.013
20
-104.876
11
119.975
21
-104.886
0
LINE
8
Black
10
119.975
20
-104.886
11
119.962
21
-104.885
0
LINE
8
Black
10
119.962
20
-104.885
11
119.949
21
-104.887
0
LINE
8
Black
10
119.949
20
-104.887
11
119.247
21
-104.887
0
LINE
8
Black
10
119.247
20
-104.887
11
119.247
21
-105.187
0
LINE
8
Black
10
119.247
20
-105.187
11
118.497
21
-105.187
0
LINE
8
Black
10
118.497
20
-105.187
11
118.497
21
-104.887
0
LINE
8
Black
10
118.497
20
-104.887
11
117.2
21
-104.887
0
LINE
8
Black
10
117.2
20
-104.887
11
117.2
21
-104.912
0
LINE
8
Black
10
117.2
20
-104.912
11
116.14
21
-104.912
0
LINE
8
Black
10
116.14
20
-104.912
11
116.14
21
-104.262
0
LINE
8
Black
10
116.14
20
-104.262
11
117.2
21
-104.262
0
LINE
8
Black
10
117.2
20
-104.262
11
117.2
21
-104.287
0
LINE
8
Black
10
117.2
20
-104.287
11
118.497
21
-104.287
0
LINE
8
Black
10
118.497
20
-104.287
11
118.497
21
-103.987
0
LINE
8
Black
10
118.497
20
-103.987
11
119.247
21
-103.987
0
LINE
8
Black
10
119.247
20
-103.987
11
119.247
21
-104.287
0
LINE
8
Black
10
119.247
20
-104.287
11
119.825
21
-104.287
0
LINE
8
Black
10
119.825
20
-104.287
11
120.184
21
-103.928
0
LINE
8
Black
10
120.184
20
-103.928
11
120.195
21
-103.92
0
LINE
8
Black
10
120.195
20
-103.92
11
120.203
21
-103.91
0
LINE
8
Black
10
120.203
20
-103.91
11
120.237
21
-103.891
0
LINE
8
Black
10
120.237
20
-103.891
11
120.269
21
-103.868
0
LINE
8
Black
10
120.269
20
-103.868
11
120.282
21
-103.865
0
LINE
8
Black
10
120.282
20
-103.865
11
120.293
21
-103.858
0
LINE
8
Black
10
120.293
20
-103.858
11
120.332
21
-103.851
0
LINE
8
Black
10
120.332
20
-103.851
11
120.37
21
-103.841
0
LINE
8
Black
10
120.37
20
-103.841
11
120.383
21
-103.842
0
LINE
8
Black
10
120.383
20
-103.842
11
120.396
21
-103.84
0
LINE
8
Black
10
120.396
20
-103.84
11
121.117
21
-103.84
0
LINE
8
Black
10
121.117
20
-103.84
11
121.145
21
-103.763
0
LINE
8
Black
10
121.145
20
-103.763
11
121.314
21
-103.562
0
LINE
8
Black
10
121.314
20
-103.562
11
121.541
21
-103.431
0
LINE
8
Black
10
121.541
20
-103.431
11
121.799
21
-103.385
0
LINE
8
Black
10
121.799
20
-103.385
11
123.311
21
-103.385
0
LINE
8
Black
10
123.311
20
-103.385
11
123.569
21
-103.431
0
LINE
8
Black
10
119.247
20
-107.087
11
119.172
21
-107.087
0
LINE
8
Black
10
119.172
20
-107.087
11
119.172
21
-109.093
0
LINE
8
Black
10
119.172
20
-109.093
11
119.17
21
-109.106
0
LINE
8
Black
10
119.17
20
-109.106
11
119.171
21
-109.119
0
LINE
8
Black
10
119.171
20
-109.119
11
119.161
21
-109.157
0
LINE
8
Black
10
119.161
20
-109.157
11
119.154
21
-109.196
0
LINE
8
Black
10
119.154
20
-109.196
11
119.147
21
-109.207
0
LINE
8
Black
10
119.147
20
-109.207
11
119.144
21
-109.22
0
LINE
8
Black
10
119.144
20
-109.22
11
119.121
21
-109.252
0
LINE
8
Black
10
119.121
20
-109.252
11
119.102
21
-109.286
0
LINE
8
Black
10
119.102
20
-109.286
11
119.092
21
-109.294
0
LINE
8
Black
10
119.092
20
-109.294
11
119.084
21
-109.305
0
LINE
8
Black
10
119.084
20
-109.305
11
118.833
21
-109.556
0
LINE
8
Black
10
118.833
20
-109.556
11
118.833
21
-111.086
0
LINE
8
Black
10
118.833
20
-111.086
11
117.133
21
-111.086
0
LINE
8
Black
10
117.133
20
-111.086
11
117.133
21
-110.282
0
LINE
8
Black
10
117.133
20
-110.282
11
115.189
21
-110.282
0
LINE
8
Black
10
115.189
20
-110.282
11
115.176
21
-110.28
0
LINE
8
Black
10
115.176
20
-110.28
11
115.163
21
-110.281
0
LINE
8
Black
10
115.163
20
-110.281
11
115.125
21
-110.271
0
LINE
8
Black
10
115.125
20
-110.271
11
115.086
21
-110.264
0
LINE
8
Black
10
115.086
20
-110.264
11
115.075
21
-110.257
0
LINE
8
Black
10
115.075
20
-110.257
11
115.062
21
-110.254
0
LINE
8
Black
10
115.062
20
-110.254
11
115.03
21
-110.231
0
LINE
8
Black
10
115.03
20
-110.231
11
114.996
21
-110.212
0
LINE
8
Black
10
114.996
20
-110.212
11
114.988
21
-110.202
0
LINE
8
Black
10
114.988
20
-110.202
11
114.977
21
-110.194
0
LINE
8
Black
10
114.977
20
-110.194
11
114.535
21
-109.752
0
LINE
8
Black
10
114.535
20
-109.752
11
114.527
21
-109.741
0
LINE
8
Black
10
114.527
20
-109.741
11
114.517
21
-109.733
0
LINE
8
Black
10
114.517
20
-109.733
11
114.498
21
-109.699
0
LINE
8
Black
10
114.498
20
-109.699
11
114.475
21
-109.667
0
LINE
8
Black
10
114.475
20
-109.667
11
114.472
21
-109.654
0
LINE
8
Black
10
114.472
20
-109.654
11
114.465
21
-109.643
0
LINE
8
Black
10
114.465
20
-109.643
11
114.458
21
-109.604
0
LINE
8
Black
10
114.458
20
-109.604
11
114.448
21
-109.566
0
LINE
8
Black
10
114.448
20
-109.566
11
114.449
21
-109.553
0
LINE
8
Black
10
114.449
20
-109.553
11
114.447
21
-109.54
0
LINE
8
Black
10
114.447
20
-109.54
11
114.447
21
-108.579
0
LINE
8
Black
10
114.447
20
-108.579
11
114.147
21
-108.579
0
LINE
8
Black
10
114.147
20
-108.579
11
114.147
21
-107.829
0
LINE
8
Black
10
114.147
20
-107.829
11
115.347
21
-107.829
0
LINE
8
Black
10
115.347
20
-107.829
11
115.347
21
-108.579
0
LINE
8
Black
10
115.347
20
-108.579
11
115.047
21
-108.579
0
LINE
8
Black
10
115.047
20
-108.579
11
115.047
21
-109.416
0
LINE
8
Black
10
115.047
20
-109.416
11
115.313
21
-109.682
0
LINE
8
Black
10
115.313
20
-109.682
11
117.133
21
-109.682
0
LINE
8
Black
10
117.133
20
-109.682
11
117.133
21
-109.386
0
LINE
8
Black
10
117.133
20
-109.386
11
118.155
21
-109.386
0
LINE
8
Black
10
118.155
20
-109.386
11
118.572
21
-108.969
0
LINE
8
Black
10
118.572
20
-108.969
11
118.572
21
-107.087
0
LINE
8
Black
10
118.572
20
-107.087
11
118.497
21
-107.087
0
LINE
8
Black
10
118.497
20
-107.087
11
118.497
21
-105.887
0
LINE
8
Black
10
118.497
20
-105.887
11
119.247
21
-105.887
0
LINE
8
Black
10
119.247
20
-105.887
11
119.247
21
-107.087
0
LINE
8
Black
10
133.673
20
-109.904
11
132.773
21
-109.904
0
LINE
8
Black
10
132.773
20
-109.904
11
132.773
21
-109.774
0
LINE
8
Black
10
132.773
20
-109.774
11
131.613
21
-109.774
0
LINE
8
Black
10
131.613
20
-109.774
11
131.585
21
-109.852
0
LINE
8
Black
10
131.585
20
-109.852
11
131.416
21
-110.052
0
LINE
8
Black
10
131.416
20
-110.052
11
131.189
21
-110.183
0
LINE
8
Black
10
131.189
20
-110.183
11
130.931
21
-110.229
0
LINE
8
Black
10
130.931
20
-110.229
11
129.419
21
-110.229
0
LINE
8
Black
10
129.419
20
-110.229
11
129.161
21
-110.183
0
LINE
8
Black
10
129.161
20
-110.183
11
128.934
21
-110.052
0
LINE
8
Black
10
128.934
20
-110.052
11
128.765
21
-109.852
0
LINE
8
Black
10
128.765
20
-109.852
11
128.676
21
-109.605
0
LINE
8
Black
10
128.676
20
-109.605
11
128.676
21
-109.343
0
LINE
8
Black
10
128.676
20
-109.343
11
128.765
21
-109.097
0
LINE
8
Black
10
128.765
20
-109.097
11
128.934
21
-108.896
0
LINE
8
Black
10
128.934
20
-108.896
11
129.161
21
-108.765
0
LINE
8
Black
10
129.161
20
-108.765
11
129.419
21
-108.719
0
LINE
8
Black
10
129.419
20
-108.719
11
130.931
21
-108.719
0
LINE
8
Black
10
130.931
20
-108.719
11
131.189
21
-108.765
0
LINE
8
Black
10
131.189
20
-108.765
11
131.416
21
-108.896
0
LINE
8
Black
10
131.416
20
-108.896
11
131.585
21
-109.097
0
LINE
8
Black
10
131.585
20
-109.097
11
131.613
21
-109.174
0
LINE
8
Black
10
131.613
20
-109.174
11
132.773
21
-109.174
0
LINE
8
Black
10
132.773
20
-109.174
11
132.773
21
-108.704
0
LINE
8
Black
10
132.773
20
-108.704
11
133.673
21
-108.704
0
LINE
8
Black
10
133.673
20
-108.704
11
133.673
21
-109.904
0
LINE
8
Black
10
142.238
20
-107.622
11
142.465
21
-107.753
0
LINE
8
Black
10
142.465
20
-107.753
11
142.634
21
-107.954
0
LINE
8
Black
10
142.634
20
-107.954
11
142.723
21
-108.2
0
LINE
8
Black
10
142.723
20
-108.2
11
142.723
21
-108.462
0
LINE
8
Black
10
142.723
20
-108.462
11
142.634
21
-108.709
0
LINE
8
Black
10
142.634
20
-108.709
11
142.465
21
-108.909
0
LINE
8
Black
10
142.465
20
-108.909
11
142.238
21
-109.04
0
LINE
8
Black
10
142.238
20
-109.04
11
141.98
21
-109.086
0
LINE
8
Black
10
141.98
20
-109.086
11
140.468
21
-109.086
0
LINE
8
Black
10
140.468
20
-109.086
11
140.21
21
-109.04
0
LINE
8
Black
10
140.21
20
-109.04
11
139.983
21
-108.909
0
LINE
8
Black
10
139.983
20
-108.909
11
139.926
21
-108.842
0
LINE
8
Black
10
139.926
20
-108.842
11
138.245
21
-108.842
0
LINE
8
Black
10
138.245
20
-108.842
11
138.245
21
-109.142
0
LINE
8
Black
10
138.245
20
-109.142
11
137.599
21
-109.142
0
LINE
8
Black
10
137.599
20
-109.142
11
137.582
21
-109.154
0
LINE
8
Black
10
137.582
20
-109.154
11
137.569
21
-109.157
0
LINE
8
Black
10
137.569
20
-109.157
11
137.558
21
-109.164
0
LINE
8
Black
10
137.558
20
-109.164
11
137.519
21
-109.171
0
LINE
8
Black
10
137.519
20
-109.171
11
137.481
21
-109.181
0
LINE
8
Black
10
137.481
20
-109.181
11
137.468
21
-109.18
0
LINE
8
Black
10
137.468
20
-109.18
11
137.455
21
-109.182
0
LINE
8
Black
10
137.455
20
-109.182
11
136.086
21
-109.182
0
LINE
8
Black
10
136.086
20
-109.182
11
136.086
21
-109.482
0
LINE
8
Black
10
136.086
20
-109.482
11
135.186
21
-109.482
0
LINE
8
Black
10
135.186
20
-109.482
11
135.186
21
-108.282
0
LINE
8
Black
10
135.186
20
-108.282
11
136.086
21
-108.282
0
LINE
8
Black
10
136.086
20
-108.282
11
136.086
21
-108.582
0
LINE
8
Black
10
136.086
20
-108.582
11
137.331
21
-108.582
0
LINE
8
Black
10
137.331
20
-108.582
11
137.345
21
-108.568
0
LINE
8
Black
10
137.345
20
-108.568
11
137.345
21
-107.942
0
LINE
8
Black
10
137.345
20
-107.942
11
138.245
21
-107.942
0
LINE
8
Black
10
138.245
20
-107.942
11
138.245
21
-108.242
0
LINE
8
Black
10
138.245
20
-108.242
11
139.725
21
-108.242
0
LINE
8
Black
10
139.725
20
-108.242
11
139.725
21
-108.2
0
LINE
8
Black
10
139.725
20
-108.2
11
139.814
21
-107.954
0
LINE
8
Black
10
139.814
20
-107.954
11
139.983
21
-107.753
0
LINE
8
Black
10
139.983
20
-107.753
11
140.21
21
-107.622
0
LINE
8
Black
10
140.21
20
-107.622
11
140.468
21
-107.576
0
LINE
8
Black
10
140.468
20
-107.576
11
141.98
21
-107.576
0
LINE
8
Black
10
141.98
20
-107.576
11
142.238
21
-107.622
0
LINE
8
Black
10
117.2
20
-106.812
11
116.97
21
-106.812
0
LINE
8
Black
10
116.97
20
-106.812
11
116.97
21
-107.829
0
LINE
8
Black
10
116.97
20
-107.829
11
117.247
21
-107.829
0
LINE
8
Black
10
117.247
20
-107.829
11
117.247
21
-108.579
0
LINE
8
Black
10
117.247
20
-108.579
11
116.047
21
-108.579
0
LINE
8
Black
10
116.047
20
-108.579
11
116.047
21
-107.829
0
LINE
8
Black
10
116.047
20
-107.829
11
116.37
21
-107.829
0
LINE
8
Black
10
116.37
20
-107.829
11
116.37
21
-106.812
0
LINE
8
Black
10
116.37
20
-106.812
11
116.14
21
-106.812
0
LINE
8
Black
10
116.14
20
-106.812
11
116.14
21
-106.162
0
LINE
8
Black
10
116.14
20
-106.162
11
117.2
21
-106.162
0
LINE
8
Black
10
117.2
20
-106.162
11
117.2
21
-106.812
0
LINE
8
Black
10
138.245
20
-106.942
11
137.345
21
-106.942
0
LINE
8
Black
10
137.345
20
-106.942
11
137.345
21
-106.642
0
LINE
8
Black
10
137.345
20
-106.642
11
134.109
21
-106.642
0
LINE
8
Black
10
134.109
20
-106.642
11
133.673
21
-107.078
0
LINE
8
Black
10
133.673
20
-107.078
11
133.673
21
-107.704
0
LINE
8
Black
10
133.673
20
-107.704
11
132.773
21
-107.704
0
LINE
8
Black
10
132.773
20
-107.704
11
132.773
21
-107.078
0
LINE
8
Black
10
132.773
20
-107.078
11
132.675
21
-106.98
0
LINE
8
Black
10
132.675
20
-106.98
11
131.613
21
-106.98
0
LINE
8
Black
10
131.613
20
-106.98
11
131.585
21
-107.058
0
LINE
8
Black
10
131.585
20
-107.058
11
131.416
21
-107.258
0
LINE
8
Black
10
131.416
20
-107.258
11
131.189
21
-107.389
0
LINE
8
Black
10
131.189
20
-107.389
11
130.931
21
-107.435
0
LINE
8
Black
10
130.931
20
-107.435
11
129.419
21
-107.435
0
LINE
8
Black
10
129.419
20
-107.435
11
129.161
21
-107.389
0
LINE
8
Black
10
129.161
20
-107.389
11
128.934
21
-107.258
0
LINE
8
Black
10
128.934
20
-107.258
11
128.765
21
-107.058
0
LINE
8
Black
10
128.765
20
-107.058
11
128.676
21
-106.811
0
LINE
8
Black
10
128.676
20
-106.811
11
128.676
21
-106.549
0
LINE
8
Black
10
128.676
20
-106.549
11
128.765
21
-106.303
0
LINE
8
Black
10
128.765
20
-106.303
11
128.934
21
-106.102
0
LINE
8
Black
10
128.934
20
-106.102
11
129.161
21
-105.971
0
LINE
8
Black
10
129.161
20
-105.971
11
129.419
21
-105.925
0
LINE
8
Black
10
129.419
20
-105.925
11
130.931
21
-105.925
0
LINE
8
Black
10
130.931
20
-105.925
11
131.189
21
-105.971
0
LINE
8
Black
10
131.189
20
-105.971
11
131.416
21
-106.102
0
LINE
8
Black
10
131.416
20
-106.102
11
131.585
21
-106.303
0
LINE
8
Black
10
131.585
20
-106.303
11
131.613
21
-106.38
0
LINE
8
Black
10
131.613
20
-106.38
11
132.799
21
-106.38
0
LINE
8
Black
10
132.799
20
-106.38
11
132.812
21
-106.382
0
LINE
8
Black
10
132.812
20
-106.382
11
132.825
21
-106.381
0
LINE
8
Black
10
132.825
20
-106.381
11
132.863
21
-106.391
0
LINE
8
Black
10
132.863
20
-106.391
11
132.902
21
-106.398
0
LINE
8
Black
10
132.902
20
-106.398
11
132.913
21
-106.405
0
LINE
8
Black
10
132.913
20
-106.405
11
132.926
21
-106.408
0
LINE
8
Black
10
132.926
20
-106.408
11
132.958
21
-106.431
0
LINE
8
Black
10
132.958
20
-106.431
11
132.992
21
-106.45
0
LINE
8
Black
10
132.992
20
-106.45
11
133
21
-106.46
0
LINE
8
Black
10
133
20
-106.46
11
133.011
21
-106.468
0
LINE
8
Black
10
133.011
20
-106.468
11
133.047
21
-106.504
0
LINE
8
Black
10
133.047
20
-106.504
11
133.399
21
-106.504
0
LINE
8
Black
10
133.399
20
-106.504
11
133.773
21
-106.13
0
LINE
8
Black
10
133.773
20
-106.13
11
133.784
21
-106.122
0
LINE
8
Black
10
133.784
20
-106.122
11
133.792
21
-106.112
0
LINE
8
Black
10
133.792
20
-106.112
11
133.826
21
-106.093
0
LINE
8
Black
10
133.826
20
-106.093
11
133.858
21
-106.07
0
LINE
8
Black
10
133.858
20
-106.07
11
133.871
21
-106.067
0
LINE
8
Black
10
133.871
20
-106.067
11
133.882
21
-106.06
0
LINE
8
Black
10
133.882
20
-106.06
11
133.921
21
-106.053
0
LINE
8
Black
10
133.921
20
-106.053
11
133.959
21
-106.043
0
LINE
8
Black
10
133.959
20
-106.043
11
133.972
21
-106.044
0
LINE
8
Black
10
133.972
20
-106.044
11
133.985
21
-106.042
0
LINE
8
Black
10
133.985
20
-106.042
11
137.345
21
-106.042
0
LINE
8
Black
10
137.345
20
-106.042
11
137.345
21
-105.742
0
LINE
8
Black
10
137.345
20
-105.742
11
138.245
21
-105.742
0
LINE
8
Black
10
138.245
20
-105.742
11
138.245
21
-106.942
0
LINE
8
Black
10
115
20
-105.862
11
113.94
21
-105.862
0
LINE
8
Black
10
113.94
20
-105.862
11
113.94
21
-105.837
0
LINE
8
Black
10
113.94
20
-105.837
11
113.408
21
-105.837
0
LINE
8
Black
10
113.408
20
-105.837
11
112.546
21
-106.699
0
LINE
8
Black
10
112.546
20
-106.699
11
112.535
21
-106.707
0
LINE
8
Black
10
112.535
20
-106.707
11
112.527
21
-106.717
0
LINE
8
Black
10
112.527
20
-106.717
11
112.493
21
-106.736
0
LINE
8
Black
10
112.493
20
-106.736
11
112.461
21
-106.759
0
LINE
8
Black
10
112.461
20
-106.759
11
112.448
21
-106.762
0
LINE
8
Black
10
112.448
20
-106.762
11
112.437
21
-106.769
0
LINE
8
Black
10
112.437
20
-106.769
11
112.398
21
-106.776
0
LINE
8
Black
10
112.398
20
-106.776
11
112.36
21
-106.786
0
LINE
8
Black
10
112.36
20
-106.786
11
112.347
21
-106.785
0
LINE
8
Black
10
112.347
20
-106.785
11
112.334
21
-106.787
0
LINE
8
Black
10
112.334
20
-106.787
11
112.135
21
-106.787
0
LINE
8
Black
10
112.135
20
-106.787
11
112.135
21
-107.087
0
LINE
8
Black
10
112.135
20
-107.087
11
111.546
21
-107.087
0
LINE
8
Black
10
111.546
20
-107.087
11
111.543
21
-107.089
0
LINE
8
Black
10
111.543
20
-107.089
11
111.504
21
-107.096
0
LINE
8
Black
10
111.504
20
-107.096
11
111.466
21
-107.106
0
LINE
8
Black
10
111.466
20
-107.106
11
111.453
21
-107.105
0
LINE
8
Black
10
111.453
20
-107.105
11
111.44
21
-107.107
0
LINE
8
Black
10
111.44
20
-107.107
11
110.277
21
-107.107
0
LINE
8
Black
10
110.277
20
-107.107
11
110.249
21
-107.185
0
LINE
8
Black
10
110.249
20
-107.185
11
110.08
21
-107.385
0
LINE
8
Black
10
110.08
20
-107.385
11
109.853
21
-107.516
0
LINE
8
Black
10
109.853
20
-107.516
11
109.595
21
-107.562
0
LINE
8
Black
10
109.595
20
-107.562
11
108.083
21
-107.562
0
LINE
8
Black
10
108.083
20
-107.562
11
107.825
21
-107.516
0
LINE
8
Black
10
107.825
20
-107.516
11
107.598
21
-107.385
0
LINE
8
Black
10
107.598
20
-107.385
11
107.429
21
-107.185
0
LINE
8
Black
10
107.429
20
-107.185
11
107.34
21
-106.938
0
LINE
8
Black
10
107.34
20
-106.938
11
107.34
21
-106.676
0
LINE
8
Black
10
107.34
20
-106.676
11
107.429
21
-106.43
0
LINE
8
Black
10
107.429
20
-106.43
11
107.598
21
-106.229
0
LINE
8
Black
10
107.598
20
-106.229
11
107.825
21
-106.098
0
LINE
8
Black
10
107.825
20
-106.098
11
108.083
21
-106.052
0
LINE
8
Black
10
108.083
20
-106.052
11
109.595
21
-106.052
0
LINE
8
Black
10
109.595
20
-106.052
11
109.853
21
-106.098
0
LINE
8
Black
10
109.853
20
-106.098
11
110.08
21
-106.229
0
LINE
8
Black
10
110.08
20
-106.229
11
110.249
21
-106.43
0
LINE
8
Black
10
110.249
20
-106.43
11
110.277
21
-106.507
0
LINE
8
Black
10
110.277
20
-106.507
11
111.316
21
-106.507
0
LINE
8
Black
10
111.316
20
-106.507
11
111.385
21
-106.438
0
LINE
8
Black
10
111.385
20
-106.438
11
111.385
21
-105.887
0
LINE
8
Black
10
111.385
20
-105.887
11
112.135
21
-105.887
0
LINE
8
Black
10
112.135
20
-105.887
11
112.135
21
-106.187
0
LINE
8
Black
10
112.135
20
-106.187
11
112.21
21
-106.187
0
LINE
8
Black
10
112.21
20
-106.187
11
113.072
21
-105.325
0
LINE
8
Black
10
113.072
20
-105.325
11
113.083
21
-105.317
0
LINE
8
Black
10
113.083
20
-105.317
11
113.091
21
-105.307
0
LINE
8
Black
10
113.091
20
-105.307
11
113.125
21
-105.288
0
LINE
8
Black
10
113.125
20
-105.288
11
113.157
21
-105.265
0
LINE
8
Black
10
113.157
20
-105.265
11
113.17
21
-105.262
0
LINE
8
Black
10
113.17
20
-105.262
11
113.181
21
-105.255
0
LINE
8
Black
10
113.181
20
-105.255
11
113.22
21
-105.248
0
LINE
8
Black
10
113.22
20
-105.248
11
113.258
21
-105.238
0
LINE
8
Black
10
113.258
20
-105.238
11
113.271
21
-105.239
0
LINE
8
Black
10
113.271
20
-105.239
11
113.284
21
-105.237
0
LINE
8
Black
10
113.284
20
-105.237
11
113.94
21
-105.237
0
LINE
8
Black
10
113.94
20
-105.237
11
113.94
21
-105.212
0
LINE
8
Black
10
113.94
20
-105.212
11
115
21
-105.212
0
LINE
8
Black
10
115
20
-105.212
11
115
21
-105.862
0
LINE
8
Black
10
131.189
20
-103.431
11
131.416
21
-103.562
0
LINE
8
Black
10
131.416
20
-103.562
11
131.585
21
-103.763
0
LINE
8
Black
10
131.585
20
-103.763
11
131.613
21
-103.84
0
LINE
8
Black
10
131.613
20
-103.84
11
139.573
21
-103.84
0
LINE
8
Black
10
139.573
20
-103.84
11
139.586
21
-103.842
0
LINE
8
Black
10
139.586
20
-103.842
11
139.599
21
-103.841
0
LINE
8
Black
10
139.599
20
-103.841
11
139.637
21
-103.851
0
LINE
8
Black
10
139.637
20
-103.851
11
139.676
21
-103.858
0
LINE
8
Black
10
139.676
20
-103.858
11
139.687
21
-103.865
0
LINE
8
Black
10
139.687
20
-103.865
11
139.7
21
-103.868
0
LINE
8
Black
10
139.7
20
-103.868
11
139.732
21
-103.891
0
LINE
8
Black
10
139.732
20
-103.891
11
139.766
21
-103.91
0
LINE
8
Black
10
139.766
20
-103.91
11
139.774
21
-103.92
0
LINE
8
Black
10
139.774
20
-103.92
11
139.785
21
-103.928
0
LINE
8
Black
10
139.785
20
-103.928
11
140.893
21
-105.036
0
LINE
8
Black
10
140.893
20
-105.036
11
141.98
21
-105.036
0
LINE
8
Black
10
141.98
20
-105.036
11
142.238
21
-105.082
0
LINE
8
Black
10
142.238
20
-105.082
11
142.465
21
-105.213
0
LINE
8
Black
10
142.465
20
-105.213
11
142.634
21
-105.414
0
LINE
8
Black
10
142.634
20
-105.414
11
142.723
21
-105.66
0
LINE
8
Black
10
142.723
20
-105.66
11
142.723
21
-105.922
0
LINE
8
Black
10
142.723
20
-105.922
11
142.634
21
-106.169
0
LINE
8
Black
10
142.634
20
-106.169
11
142.465
21
-106.369
0
LINE
8
Black
10
142.465
20
-106.369
11
142.238
21
-106.5
0
LINE
8
Black
10
142.238
20
-106.5
11
141.98
21
-106.546
0
LINE
8
Black
10
141.98
20
-106.546
11
140.468
21
-106.546
0
LINE
8
Black
10
140.468
20
-106.546
11
140.21
21
-106.5
0
LINE
8
Black
10
140.21
20
-106.5
11
139.983
21
-106.369
0
LINE
8
Black
10
139.983
20
-106.369
11
139.814
21
-106.169
0
LINE
8
Black
10
139.814
20
-106.169
11
139.725
21
-105.922
0
LINE
8
Black
10
139.725
20
-105.922
11
139.725
21
-105.66
0
LINE
8
Black
10
139.725
20
-105.66
11
139.814
21
-105.414
0
LINE
8
Black
10
139.814
20
-105.414
11
139.983
21
-105.213
0
LINE
8
Black
10
139.983
20
-105.213
11
140.134
21
-105.125
0
LINE
8
Black
10
140.134
20
-105.125
11
139.449
21
-104.44
0
LINE
8
Black
10
139.449
20
-104.44
11
131.613
21
-104.44
0
LINE
8
Black
10
131.613
20
-104.44
11
131.585
21
-104.518
0
LINE
8
Black
10
131.585
20
-104.518
11
131.416
21
-104.718
0
LINE
8
Black
10
131.416
20
-104.718
11
131.189
21
-104.849
0
LINE
8
Black
10
131.189
20
-104.849
11
130.931
21
-104.895
0
LINE
8
Black
10
130.931
20
-104.895
11
129.419
21
-104.895
0
LINE
8
Black
10
129.419
20
-104.895
11
129.161
21
-104.849
0
LINE
8
Black
10
129.161
20
-104.849
11
128.934
21
-104.718
0
LINE
8
Black
10
128.934
20
-104.718
11
128.765
21
-104.518
0
LINE
8
Black
10
128.765
20
-104.518
11
128.676
21
-104.271
0
LINE
8
Black
10
128.676
20
-104.271
11
128.676
21
-104.009
0
LINE
8
Black
10
128.676
20
-104.009
11
128.765
21
-103.763
0
LINE
8
Black
10
128.765
20
-103.763
11
128.934
21
-103.562
0
LINE
8
Black
10
128.934
20
-103.562
11
129.161
21
-103.431
0
LINE
8
Black
10
129.161
20
-103.431
11
129.419
21
-103.385
0
LINE
8
Black
10
129.419
20
-103.385
11
130.931
21
-103.385
0
LINE
8
Black
10
130.931
20
-103.385
11
131.189
21
-103.431
0
LINE
8
Black
10
114.331
20
-95.244
11
114.031
21
-95.244
0
LINE
8
Black
10
114.031
20
-95.244
11
114.031
21
-95.5727
0
LINE
8
Black
10
114.031
20
-95.5727
11
114.424
21
-95.966
0
LINE
8
Black
10
114.424
20
-95.966
11
117.666
21
-95.966
0
LINE
8
Black
10
117.666
20
-95.966
11
117.862
21
-95.7697
0
LINE
8
Black
10
117.862
20
-95.7697
11
117.862
21
-95.219
0
LINE
8
Black
10
117.862
20
-95.219
11
118.612
21
-95.219
0
LINE
8
Black
10
118.612
20
-95.219
11
118.612
21
-95.7697
0
LINE
8
Black
10
118.612
20
-95.7697
11
120.078
21
-97.236
0
LINE
8
Black
10
120.078
20
-97.236
11
120.101
21
-97.236
0
LINE
8
Black
10
120.101
20
-97.236
11
120.129
21
-97.1585
0
LINE
8
Black
10
120.129
20
-97.1585
11
120.298
21
-96.9576
0
LINE
8
Black
10
120.298
20
-96.9576
11
120.525
21
-96.8265
0
LINE
8
Black
10
120.525
20
-96.8265
11
120.783
21
-96.781
0
LINE
8
Black
10
120.783
20
-96.781
11
122.295
21
-96.781
0
LINE
8
Black
10
122.295
20
-96.781
11
122.553
21
-96.8265
0
LINE
8
Black
10
122.553
20
-96.8265
11
122.78
21
-96.9576
0
LINE
8
Black
10
122.78
20
-96.9576
11
122.949
21
-97.1585
0
LINE
8
Black
10
122.949
20
-97.1585
11
123.038
21
-97.4049
0
LINE
8
Black
10
123.038
20
-97.4049
11
123.038
21
-97.6671
0
LINE
8
Black
10
123.038
20
-97.6671
11
122.949
21
-97.9135
0
LINE
8
Black
10
122.949
20
-97.9135
11
122.78
21
-98.1144
0
LINE
8
Black
10
122.78
20
-98.1144
11
122.553
21
-98.2455
0
LINE
8
Black
10
122.553
20
-98.2455
11
122.295
21
-98.291
0
LINE
8
Black
10
122.295
20
-98.291
11
120.783
21
-98.291
0
LINE
8
Black
10
120.783
20
-98.291
11
120.525
21
-98.2455
0
LINE
8
Black
10
120.525
20
-98.2455
11
120.298
21
-98.1144
0
LINE
8
Black
10
120.298
20
-98.1144
11
120.129
21
-97.9135
0
LINE
8
Black
10
120.129
20
-97.9135
11
120.101
21
-97.836
0
LINE
8
Black
10
120.101
20
-97.836
11
119.954
21
-97.836
0
LINE
8
Black
10
119.954
20
-97.836
11
119.941
21
-97.8337
0
LINE
8
Black
10
119.941
20
-97.8337
11
119.928
21
-97.8349
0
LINE
8
Black
10
119.928
20
-97.8349
11
119.89
21
-97.8247
0
LINE
8
Black
10
119.89
20
-97.8247
11
119.851
21
-97.8179
0
LINE
8
Black
10
119.851
20
-97.8179
11
119.84
21
-97.8113
0
LINE
8
Black
10
119.84
20
-97.8113
11
119.827
21
-97.8079
0
LINE
8
Black
10
119.827
20
-97.8079
11
119.795
21
-97.7854
0
LINE
8
Black
10
119.795
20
-97.7854
11
119.761
21
-97.7658
0
LINE
8
Black
10
119.761
20
-97.7658
11
119.753
21
-97.7557
0
LINE
8
Black
10
119.753
20
-97.7557
11
119.742
21
-97.7481
0
LINE
8
Black
10
119.742
20
-97.7481
11
118.413
21
-96.419
0
LINE
8
Black
10
118.413
20
-96.419
11
118.061
21
-96.419
0
LINE
8
Black
10
118.061
20
-96.419
11
118.002
21
-96.4781
0
LINE
8
Black
10
118.002
20
-96.4781
11
117.991
21
-96.4857
0
LINE
8
Black
10
117.991
20
-96.4857
11
117.983
21
-96.4958
0
LINE
8
Black
10
117.983
20
-96.4958
11
117.949
21
-96.5154
0
LINE
8
Black
10
117.949
20
-96.5154
11
117.917
21
-96.5379
0
LINE
8
Black
10
117.917
20
-96.5379
11
117.904
21
-96.5413
0
LINE
8
Black
10
117.904
20
-96.5413
11
117.893
21
-96.5479
0
LINE
8
Black
10
117.893
20
-96.5479
11
117.854
21
-96.5547
0
LINE
8
Black
10
117.854
20
-96.5547
11
117.816
21
-96.5649
0
LINE
8
Black
10
117.816
20
-96.5649
11
117.803
21
-96.5637
0
LINE
8
Black
10
117.803
20
-96.5637
11
117.79
21
-96.566
0
LINE
8
Black
10
117.79
20
-96.566
11
114.3
21
-96.566
0
LINE
8
Black
10
114.3
20
-96.566
11
114.287
21
-96.5637
0
LINE
8
Black
10
114.287
20
-96.5637
11
114.274
21
-96.5649
0
LINE
8
Black
10
114.274
20
-96.5649
11
114.236
21
-96.5547
0
LINE
8
Black
10
114.236
20
-96.5547
11
114.197
21
-96.5479
0
LINE
8
Black
10
114.197
20
-96.5479
11
114.186
21
-96.5413
0
LINE
8
Black
10
114.186
20
-96.5413
11
114.173
21
-96.5379
0
LINE
8
Black
10
114.173
20
-96.5379
11
114.141
21
-96.5154
0
LINE
8
Black
10
114.141
20
-96.5154
11
114.107
21
-96.4958
0
LINE
8
Black
10
114.107
20
-96.4958
11
114.099
21
-96.4857
0
LINE
8
Black
10
114.099
20
-96.4857
11
114.088
21
-96.4781
0
LINE
8
Black
10
114.088
20
-96.4781
11
113.519
21
-95.9091
0
LINE
8
Black
10
113.519
20
-95.9091
11
113.511
21
-95.8983
0
LINE
8
Black
10
113.511
20
-95.8983
11
113.501
21
-95.8898
0
LINE
8
Black
10
113.501
20
-95.8898
11
113.482
21
-95.8559
0
LINE
8
Black
10
113.482
20
-95.8559
11
113.459
21
-95.8238
0
LINE
8
Black
10
113.459
20
-95.8238
11
113.456
21
-95.811
0
LINE
8
Black
10
113.456
20
-95.811
11
113.449
21
-95.7996
0
LINE
8
Black
10
113.449
20
-95.7996
11
113.442
21
-95.761
0
LINE
8
Black
10
113.442
20
-95.761
11
113.432
21
-95.7231
0
LINE
8
Black
10
113.432
20
-95.7231
11
113.433
21
-95.71
0
LINE
8
Black
10
113.433
20
-95.71
11
113.431
21
-95.697
0
LINE
8
Black
10
113.431
20
-95.697
11
113.431
21
-95.244
0
LINE
8
Black
10
113.431
20
-95.244
11
113.131
21
-95.244
0
LINE
8
Black
10
113.131
20
-95.244
11
113.131
21
-94.494
0
LINE
8
Black
10
113.131
20
-94.494
11
114.331
21
-94.494
0
LINE
8
Black
10
114.331
20
-94.494
11
114.331
21
-95.244
0
LINE
8
Black
10
133.889
20
-95.244
11
133.589
21
-95.244
0
LINE
8
Black
10
133.589
20
-95.244
11
133.589
21
-95.5727
0
LINE
8
Black
10
133.589
20
-95.5727
11
133.982
21
-95.966
0
LINE
8
Black
10
133.982
20
-95.966
11
137.224
21
-95.966
0
LINE
8
Black
10
137.224
20
-95.966
11
137.42
21
-95.7697
0
LINE
8
Black
10
137.42
20
-95.7697
11
137.42
21
-95.219
0
LINE
8
Black
10
137.42
20
-95.219
11
138.17
21
-95.219
0
LINE
8
Black
10
138.17
20
-95.219
11
138.17
21
-95.7697
0
LINE
8
Black
10
138.17
20
-95.7697
11
139.636
21
-97.236
0
LINE
8
Black
10
139.636
20
-97.236
11
139.659
21
-97.236
0
LINE
8
Black
10
139.659
20
-97.236
11
139.687
21
-97.1585
0
LINE
8
Black
10
139.687
20
-97.1585
11
139.856
21
-96.9576
0
LINE
8
Black
10
139.856
20
-96.9576
11
140.083
21
-96.8265
0
LINE
8
Black
10
140.083
20
-96.8265
11
140.341
21
-96.781
0
LINE
8
Black
10
140.341
20
-96.781
11
141.853
21
-96.781
0
LINE
8
Black
10
141.853
20
-96.781
11
142.111
21
-96.8265
0
LINE
8
Black
10
142.111
20
-96.8265
11
142.338
21
-96.9576
0
LINE
8
Black
10
142.338
20
-96.9576
11
142.507
21
-97.1585
0
LINE
8
Black
10
142.507
20
-97.1585
11
142.596
21
-97.4049
0
LINE
8
Black
10
142.596
20
-97.4049
11
142.596
21
-97.6671
0
LINE
8
Black
10
142.596
20
-97.6671
11
142.507
21
-97.9135
0
LINE
8
Black
10
142.507
20
-97.9135
11
142.338
21
-98.1144
0
LINE
8
Black
10
142.338
20
-98.1144
11
142.111
21
-98.2455
0
LINE
8
Black
10
142.111
20
-98.2455
11
141.853
21
-98.291
0
LINE
8
Black
10
141.853
20
-98.291
11
140.341
21
-98.291
0
LINE
8
Black
10
140.341
20
-98.291
11
140.083
21
-98.2455
0
LINE
8
Black
10
140.083
20
-98.2455
11
139.856
21
-98.1144
0
LINE
8
Black
10
139.856
20
-98.1144
11
139.687
21
-97.9135
0
LINE
8
Black
10
139.687
20
-97.9135
11
139.659
21
-97.836
0
LINE
8
Black
10
139.659
20
-97.836
11
139.512
21
-97.836
0
LINE
8
Black
10
139.512
20
-97.836
11
139.499
21
-97.8337
0
LINE
8
Black
10
139.499
20
-97.8337
11
139.486
21
-97.8349
0
LINE
8
Black
10
139.486
20
-97.8349
11
139.448
21
-97.8247
0
LINE
8
Black
10
139.448
20
-97.8247
11
139.409
21
-97.8179
0
LINE
8
Black
10
139.409
20
-97.8179
11
139.398
21
-97.8113
0
LINE
8
Black
10
139.398
20
-97.8113
11
139.385
21
-97.8079
0
LINE
8
Black
10
139.385
20
-97.8079
11
139.353
21
-97.7854
0
LINE
8
Black
10
139.353
20
-97.7854
11
139.319
21
-97.7658
0
LINE
8
Black
10
139.319
20
-97.7658
11
139.311
21
-97.7557
0
LINE
8
Black
10
139.311
20
-97.7557
11
139.3
21
-97.7481
0
LINE
8
Black
10
139.3
20
-97.7481
11
137.971
21
-96.419
0
LINE
8
Black
10
137.971
20
-96.419
11
137.619
21
-96.419
0
LINE
8
Black
10
137.619
20
-96.419
11
137.56
21
-96.4781
0
LINE
8
Black
10
137.56
20
-96.4781
11
137.549
21
-96.4857
0
LINE
8
Black
10
137.549
20
-96.4857
11
137.541
21
-96.4958
0
LINE
8
Black
10
137.541
20
-96.4958
11
137.507
21
-96.5154
0
LINE
8
Black
10
137.507
20
-96.5154
11
137.475
21
-96.5379
0
LINE
8
Black
10
137.475
20
-96.5379
11
137.462
21
-96.5413
0
LINE
8
Black
10
137.462
20
-96.5413
11
137.451
21
-96.5479
0
LINE
8
Black
10
137.451
20
-96.5479
11
137.412
21
-96.5547
0
LINE
8
Black
10
137.412
20
-96.5547
11
137.374
21
-96.5649
0
LINE
8
Black
10
137.374
20
-96.5649
11
137.361
21
-96.5637
0
LINE
8
Black
10
137.361
20
-96.5637
11
137.348
21
-96.566
0
LINE
8
Black
10
137.348
20
-96.566
11
133.858
21
-96.566
0
LINE
8
Black
10
133.858
20
-96.566
11
133.845
21
-96.5637
0
LINE
8
Black
10
133.845
20
-96.5637
11
133.832
21
-96.5649
0
LINE
8
Black
10
133.832
20
-96.5649
11
133.794
21
-96.5547
0
LINE
8
Black
10
133.794
20
-96.5547
11
133.755
21
-96.5479
0
LINE
8
Black
10
133.755
20
-96.5479
11
133.744
21
-96.5413
0
LINE
8
Black
10
133.744
20
-96.5413
11
133.731
21
-96.5379
0
LINE
8
Black
10
133.731
20
-96.5379
11
133.699
21
-96.5154
0
LINE
8
Black
10
133.699
20
-96.5154
11
133.665
21
-96.4958
0
LINE
8
Black
10
133.665
20
-96.4958
11
133.657
21
-96.4857
0
LINE
8
Black
10
133.657
20
-96.4857
11
133.646
21
-96.4781
0
LINE
8
Black
10
133.646
20
-96.4781
11
133.077
21
-95.9091
0
LINE
8
Black
10
133.077
20
-95.9091
11
133.069
21
-95.8983
0
LINE
8
Black
10
133.069
20
-95.8983
11
133.059
21
-95.8898
0
LINE
8
Black
10
133.059
20
-95.8898
11
133.04
21
-95.8559
0
LINE
8
Black
10
133.04
20
-95.8559
11
133.017
21
-95.8238
0
LINE
8
Black
10
133.017
20
-95.8238
11
133.014
21
-95.811
0
LINE
8
Black
10
133.014
20
-95.811
11
133.007
21
-95.7996
0
LINE
8
Black
10
133.007
20
-95.7996
11
133
21
-95.761
0
LINE
8
Black
10
133
20
-95.761
11
132.99
21
-95.7231
0
LINE
8
Black
10
132.99
20
-95.7231
11
132.991
21
-95.71
0
LINE
8
Black
10
132.991
20
-95.71
11
132.989
21
-95.697
0
LINE
8
Black
10
132.989
20
-95.697
11
132.989
21
-95.244
0
LINE
8
Black
10
132.989
20
-95.244
11
132.689
21
-95.244
0
LINE
8
Black
10
132.689
20
-95.244
11
132.689
21
-94.494
0
LINE
8
Black
10
132.689
20
-94.494
11
133.889
21
-94.494
0
LINE
8
Black
10
133.889
20
-94.494
11
133.889
21
-95.244
0
LINE
8
Black
10
135.869
20
-89.936
11
136.761
21
-89.936
0
LINE
8
Black
10
136.761
20
-89.936
11
136.774
21
-89.9383
0
LINE
8
Black
10
136.774
20
-89.9383
11
136.787
21
-89.9371
0
LINE
8
Black
10
136.787
20
-89.9371
11
136.825
21
-89.9473
0
LINE
8
Black
10
136.825
20
-89.9473
11
136.864
21
-89.9541
0
LINE
8
Black
10
136.864
20
-89.9541
11
136.875
21
-89.9607
0
LINE
8
Black
10
136.875
20
-89.9607
11
136.888
21
-89.9641
0
LINE
8
Black
10
136.888
20
-89.9641
11
136.92
21
-89.9866
0
LINE
8
Black
10
136.92
20
-89.9866
11
136.954
21
-90.0062
0
LINE
8
Black
10
136.954
20
-90.0062
11
136.962
21
-90.0163
0
LINE
8
Black
10
136.962
20
-90.0163
11
136.973
21
-90.0239
0
LINE
8
Black
10
136.973
20
-90.0239
11
137.492
21
-90.543
0
LINE
8
Black
10
137.492
20
-90.543
11
138.118
21
-90.543
0
LINE
8
Black
10
138.118
20
-90.543
11
138.118
21
-91.743
0
LINE
8
Black
10
138.118
20
-91.743
11
137.968
21
-91.743
0
LINE
8
Black
10
137.968
20
-91.743
11
137.968
21
-93.319
0
LINE
8
Black
10
137.968
20
-93.319
11
138.17
21
-93.319
0
LINE
8
Black
10
138.17
20
-93.319
11
138.17
21
-93.7033
0
LINE
8
Black
10
138.17
20
-93.7033
11
140.333
21
-94.2424
0
LINE
8
Black
10
140.333
20
-94.2424
11
140.341
21
-94.241
0
LINE
8
Black
10
140.341
20
-94.241
11
141.853
21
-94.241
0
LINE
8
Black
10
141.853
20
-94.241
11
142.111
21
-94.2865
0
LINE
8
Black
10
142.111
20
-94.2865
11
142.338
21
-94.4176
0
LINE
8
Black
10
142.338
20
-94.4176
11
142.507
21
-94.6185
0
LINE
8
Black
10
142.507
20
-94.6185
11
142.596
21
-94.8649
0
LINE
8
Black
10
142.596
20
-94.8649
11
142.596
21
-95.1271
0
LINE
8
Black
10
142.596
20
-95.1271
11
142.507
21
-95.3735
0
LINE
8
Black
10
142.507
20
-95.3735
11
142.338
21
-95.5744
0
LINE
8
Black
10
142.338
20
-95.5744
11
142.111
21
-95.7055
0
LINE
8
Black
10
142.111
20
-95.7055
11
141.853
21
-95.751
0
LINE
8
Black
10
141.853
20
-95.751
11
140.341
21
-95.751
0
LINE
8
Black
10
140.341
20
-95.751
11
140.083
21
-95.7055
0
LINE
8
Black
10
140.083
20
-95.7055
11
139.856
21
-95.5744
0
LINE
8
Black
10
139.856
20
-95.5744
11
139.687
21
-95.3735
0
LINE
8
Black
10
139.687
20
-95.3735
11
139.598
21
-95.1271
0
LINE
8
Black
10
139.598
20
-95.1271
11
139.598
21
-94.8649
0
LINE
8
Black
10
139.598
20
-94.8649
11
139.66
21
-94.6931
0
LINE
8
Black
10
139.66
20
-94.6931
11
138.17
21
-94.3216
0
LINE
8
Black
10
138.17
20
-94.3216
11
138.17
21
-94.519
0
LINE
8
Black
10
138.17
20
-94.519
11
137.42
21
-94.519
0
LINE
8
Black
10
137.42
20
-94.519
11
137.42
21
-93.9533
0
LINE
8
Black
10
137.42
20
-93.9533
11
137.386
21
-93.8946
0
LINE
8
Black
10
137.386
20
-93.8946
11
137.368
21
-93.792
0
LINE
8
Black
10
137.368
20
-93.792
11
137.368
21
-91.743
0
LINE
8
Black
10
137.368
20
-91.743
11
137.218
21
-91.743
0
LINE
8
Black
10
137.218
20
-91.743
11
137.218
21
-91.1173
0
LINE
8
Black
10
137.218
20
-91.1173
11
136.637
21
-90.536
0
LINE
8
Black
10
136.637
20
-90.536
11
135.869
21
-90.536
0
LINE
8
Black
10
135.869
20
-90.536
11
135.869
21
-90.561
0
LINE
8
Black
10
135.869
20
-90.561
11
134.809
21
-90.561
0
LINE
8
Black
10
134.809
20
-90.561
11
134.809
21
-89.911
0
LINE
8
Black
10
134.809
20
-89.911
11
135.869
21
-89.911
0
LINE
8
Black
10
135.869
20
-89.911
11
135.869
21
-89.936
0
LINE
8
Black
10
116.311
20
-89.936
11
117.203
21
-89.936
0
LINE
8
Black
10
117.203
20
-89.936
11
117.216
21
-89.9383
0
LINE
8
Black
10
117.216
20
-89.9383
11
117.229
21
-89.9371
0
LINE
8
Black
10
117.229
20
-89.9371
11
117.267
21
-89.9473
0
LINE
8
Black
10
117.267
20
-89.9473
11
117.306
21
-89.9541
0
LINE
8
Black
10
117.306
20
-89.9541
11
117.317
21
-89.9607
0
LINE
8
Black
10
117.317
20
-89.9607
11
117.33
21
-89.9641
0
LINE
8
Black
10
117.33
20
-89.9641
11
117.362
21
-89.9866
0
LINE
8
Black
10
117.362
20
-89.9866
11
117.396
21
-90.0062
0
LINE
8
Black
10
117.396
20
-90.0062
11
117.404
21
-90.0163
0
LINE
8
Black
10
117.404
20
-90.0163
11
117.415
21
-90.0239
0
LINE
8
Black
10
117.415
20
-90.0239
11
117.934
21
-90.543
0
LINE
8
Black
10
117.934
20
-90.543
11
118.56
21
-90.543
0
LINE
8
Black
10
118.56
20
-90.543
11
118.56
21
-91.743
0
LINE
8
Black
10
118.56
20
-91.743
11
118.41
21
-91.743
0
LINE
8
Black
10
118.41
20
-91.743
11
118.41
21
-93.319
0
LINE
8
Black
10
118.41
20
-93.319
11
118.612
21
-93.319
0
LINE
8
Black
10
118.612
20
-93.319
11
118.612
21
-93.7033
0
LINE
8
Black
10
118.612
20
-93.7033
11
120.775
21
-94.2424
0
LINE
8
Black
10
120.775
20
-94.2424
11
120.783
21
-94.241
0
LINE
8
Black
10
120.783
20
-94.241
11
122.295
21
-94.241
0
LINE
8
Black
10
122.295
20
-94.241
11
122.553
21
-94.2865
0
LINE
8
Black
10
122.553
20
-94.2865
11
122.78
21
-94.4176
0
LINE
8
Black
10
122.78
20
-94.4176
11
122.949
21
-94.6185
0
LINE
8
Black
10
122.949
20
-94.6185
11
123.038
21
-94.8649
0
LINE
8
Black
10
123.038
20
-94.8649
11
123.038
21
-95.1271
0
LINE
8
Black
10
123.038
20
-95.1271
11
122.949
21
-95.3735
0
LINE
8
Black
10
122.949
20
-95.3735
11
122.78
21
-95.5744
0
LINE
8
Black
10
122.78
20
-95.5744
11
122.553
21
-95.7055
0
LINE
8
Black
10
122.553
20
-95.7055
11
122.295
21
-95.751
0
LINE
8
Black
10
122.295
20
-95.751
11
120.783
21
-95.751
0
LINE
8
Black
10
120.783
20
-95.751
11
120.525
21
-95.7055
0
LINE
8
Black
10
120.525
20
-95.7055
11
120.298
21
-95.5744
0
LINE
8
Black
10
120.298
20
-95.5744
11
120.129
21
-95.3735
0
LINE
8
Black
10
120.129
20
-95.3735
11
120.04
21
-95.1271
0
LINE
8
Black
10
120.04
20
-95.1271
11
120.04
21
-94.8649
0
LINE
8
Black
10
120.04
20
-94.8649
11
120.102
21
-94.6931
0
LINE
8
Black
10
120.102
20
-94.6931
11
118.612
21
-94.3216
0
LINE
8
Black
10
118.612
20
-94.3216
11
118.612
21
-94.519
0
LINE
8
Black
10
118.612
20
-94.519
11
117.862
21
-94.519
0
LINE
8
Black
10
117.862
20
-94.519
11
117.862
21
-93.9533
0
LINE
8
Black
10
117.862
20
-93.9533
11
117.828
21
-93.8946
0
LINE
8
Black
10
117.828
20
-93.8946
11
117.81
21
-93.792
0
LINE
8
Black
10
117.81
20
-93.792
11
117.81
21
-91.743
0
LINE
8
Black
10
117.81
20
-91.743
11
117.66
21
-91.743
0
LINE
8
Black
10
117.66
20
-91.743
11
117.66
21
-91.1173
0
LINE
8
Black
10
117.66
20
-91.1173
11
117.079
21
-90.536
0
LINE
8
Black
10
117.079
20
-90.536
11
116.311
21
-90.536
0
LINE
8
Black
10
116.311
20
-90.536
11
116.311
21
-90.561
0
LINE
8
Black
10
116.311
20
-90.561
11
115.251
21
-90.561
0
LINE
8
Black
10
115.251
20
-90.561
11
115.251
21
-89.911
0
LINE
8
Black
10
115.251
20
-89.911
11
116.311
21
-89.911
0
LINE
8
Black
10
116.311
20
-89.911
11
116.311
21
-89.936
0
LINE
8
Black
10
135.869
20
-92.461
11
135.639
21
-92.461
0
LINE
8
Black
10
135.639
20
-92.461
11
135.639
21
-94.494
0
LINE
8
Black
10
135.639
20
-94.494
11
135.789
21
-94.494
0
LINE
8
Black
10
135.789
20
-94.494
11
135.789
21
-95.244
0
LINE
8
Black
10
135.789
20
-95.244
11
134.589
21
-95.244
0
LINE
8
Black
10
134.589
20
-95.244
11
134.589
21
-94.494
0
LINE
8
Black
10
134.589
20
-94.494
11
135.039
21
-94.494
0
LINE
8
Black
10
135.039
20
-94.494
11
135.039
21
-92.461
0
LINE
8
Black
10
135.039
20
-92.461
11
134.809
21
-92.461
0
LINE
8
Black
10
134.809
20
-92.461
11
134.809
21
-91.811
0
LINE
8
Black
10
134.809
20
-91.811
11
135.869
21
-91.811
0
LINE
8
Black
10
135.869
20
-91.811
11
135.869
21
-92.461
0
LINE
8
Black
10
116.311
20
-92.461
11
116.081
21
-92.461
0
LINE
8
Black
10
116.081
20
-92.461
11
116.081
21
-94.494
0
LINE
8
Black
10
116.081
20
-94.494
11
116.231
21
-94.494
0
LINE
8
Black
10
116.231
20
-94.494
11
116.231
21
-95.244
0
LINE
8
Black
10
116.231
20
-95.244
11
115.031
21
-95.244
0
LINE
8
Black
10
115.031
20
-95.244
11
115.031
21
-94.494
0
LINE
8
Black
10
115.031
20
-94.494
11
115.481
21
-94.494
0
LINE
8
Black
10
115.481
20
-94.494
11
115.481
21
-92.461
0
LINE
8
Black
10
115.481
20
-92.461
11
115.251
21
-92.461
0
LINE
8
Black
10
115.251
20
-92.461
11
115.251
21
-91.811
0
LINE
8
Black
10
115.251
20
-91.811
11
116.311
21
-91.811
0
LINE
8
Black
10
116.311
20
-91.811
11
116.311
21
-92.461
0
LINE
8
Black
10
133.669
20
-92.461
11
133.241
21
-92.461
0
LINE
8
Black
10
133.241
20
-92.461
11
132.549
21
-93.1731
0
LINE
8
Black
10
132.549
20
-93.1731
11
132.529
21
-93.1879
0
LINE
8
Black
10
132.529
20
-93.1879
11
132.511
21
-93.2061
0
LINE
8
Black
10
132.511
20
-93.2061
11
132.487
21
-93.2181
0
LINE
8
Black
10
132.487
20
-93.2181
11
132.465
21
-93.2341
0
LINE
8
Black
10
132.465
20
-93.2341
11
132.44
21
-93.241
0
LINE
8
Black
10
132.44
20
-93.241
11
132.418
21
-93.2521
0
LINE
8
Black
10
132.418
20
-93.2521
11
129.896
21
-93.9841
0
LINE
8
Black
10
129.896
20
-93.9841
11
129.896
21
-94.2381
0
LINE
8
Black
10
129.896
20
-94.2381
11
129.807
21
-94.4845
0
LINE
8
Black
10
129.807
20
-94.4845
11
129.638
21
-94.6854
0
LINE
8
Black
10
129.638
20
-94.6854
11
129.411
21
-94.8165
0
LINE
8
Black
10
129.411
20
-94.8165
11
129.153
21
-94.862
0
LINE
8
Black
10
129.153
20
-94.862
11
127.641
21
-94.862
0
LINE
8
Black
10
127.641
20
-94.862
11
127.383
21
-94.8165
0
LINE
8
Black
10
127.383
20
-94.8165
11
127.156
21
-94.6854
0
LINE
8
Black
10
127.156
20
-94.6854
11
126.987
21
-94.4845
0
LINE
8
Black
10
126.987
20
-94.4845
11
126.898
21
-94.2381
0
LINE
8
Black
10
126.898
20
-94.2381
11
126.898
21
-93.9759
0
LINE
8
Black
10
126.898
20
-93.9759
11
126.987
21
-93.7295
0
LINE
8
Black
10
126.987
20
-93.7295
11
127.156
21
-93.5286
0
LINE
8
Black
10
127.156
20
-93.5286
11
127.383
21
-93.3975
0
LINE
8
Black
10
127.383
20
-93.3975
11
127.641
21
-93.352
0
LINE
8
Black
10
127.641
20
-93.352
11
129.153
21
-93.352
0
LINE
8
Black
10
129.153
20
-93.352
11
129.411
21
-93.3975
0
LINE
8
Black
10
129.411
20
-93.3975
11
129.529
21
-93.4659
0
LINE
8
Black
10
129.529
20
-93.4659
11
132.174
21
-92.698
0
LINE
8
Black
10
132.174
20
-92.698
11
132.609
21
-92.2508
0
LINE
8
Black
10
132.609
20
-92.2508
11
132.609
21
-91.811
0
LINE
8
Black
10
132.609
20
-91.811
11
133.669
21
-91.811
0
LINE
8
Black
10
133.669
20
-91.811
11
133.669
21
-92.461
0
LINE
8
Black
10
114.111
20
-92.461
11
113.683
21
-92.461
0
LINE
8
Black
10
113.683
20
-92.461
11
112.991
21
-93.1731
0
LINE
8
Black
10
112.991
20
-93.1731
11
112.971
21
-93.1879
0
LINE
8
Black
10
112.971
20
-93.1879
11
112.953
21
-93.2061
0
LINE
8
Black
10
112.953
20
-93.2061
11
112.929
21
-93.2181
0
LINE
8
Black
10
112.929
20
-93.2181
11
112.907
21
-93.2341
0
LINE
8
Black
10
112.907
20
-93.2341
11
112.882
21
-93.241
0
LINE
8
Black
10
112.882
20
-93.241
11
112.86
21
-93.2521
0
LINE
8
Black
10
112.86
20
-93.2521
11
110.338
21
-93.9841
0
LINE
8
Black
10
110.338
20
-93.9841
11
110.338
21
-94.2381
0
LINE
8
Black
10
110.338
20
-94.2381
11
110.249
21
-94.4845
0
LINE
8
Black
10
110.249
20
-94.4845
11
110.08
21
-94.6854
0
LINE
8
Black
10
110.08
20
-94.6854
11
109.853
21
-94.8165
0
LINE
8
Black
10
109.853
20
-94.8165
11
109.595
21
-94.862
0
LINE
8
Black
10
109.595
20
-94.862
11
108.083
21
-94.862
0
LINE
8
Black
10
108.083
20
-94.862
11
107.825
21
-94.8165
0
LINE
8
Black
10
107.825
20
-94.8165
11
107.598
21
-94.6854
0
LINE
8
Black
10
107.598
20
-94.6854
11
107.429
21
-94.4845
0
LINE
8
Black
10
107.429
20
-94.4845
11
107.34
21
-94.2381
0
LINE
8
Black
10
107.34
20
-94.2381
11
107.34
21
-93.9759
0
LINE
8
Black
10
107.34
20
-93.9759
11
107.429
21
-93.7295
0
LINE
8
Black
10
107.429
20
-93.7295
11
107.598
21
-93.5286
0
LINE
8
Black
10
107.598
20
-93.5286
11
107.825
21
-93.3975
0
LINE
8
Black
10
107.825
20
-93.3975
11
108.083
21
-93.352
0
LINE
8
Black
10
108.083
20
-93.352
11
109.595
21
-93.352
0
LINE
8
Black
10
109.595
20
-93.352
11
109.853
21
-93.3975
0
LINE
8
Black
10
109.853
20
-93.3975
11
109.971
21
-93.4659
0
LINE
8
Black
10
109.971
20
-93.4659
11
112.616
21
-92.698
0
LINE
8
Black
10
112.616
20
-92.698
11
113.051
21
-92.2508
0
LINE
8
Black
10
113.051
20
-92.2508
11
113.051
21
-91.811
0
LINE
8
Black
10
113.051
20
-91.811
11
114.111
21
-91.811
0
LINE
8
Black
10
114.111
20
-91.811
11
114.111
21
-92.461
0
LINE
8
Black
10
131.566
20
-90.886
11
132.609
21
-90.886
0
LINE
8
Black
10
132.609
20
-90.886
11
132.609
21
-90.861
0
LINE
8
Black
10
132.609
20
-90.861
11
133.669
21
-90.861
0
LINE
8
Black
10
133.669
20
-90.861
11
133.669
21
-91.511
0
LINE
8
Black
10
133.669
20
-91.511
11
132.609
21
-91.511
0
LINE
8
Black
10
132.609
20
-91.511
11
132.609
21
-91.486
0
LINE
8
Black
10
132.609
20
-91.486
11
131.566
21
-91.486
0
LINE
8
Black
10
131.566
20
-91.486
11
131.566
21
-91.593
0
LINE
8
Black
10
131.566
20
-91.593
11
130.816
21
-91.593
0
LINE
8
Black
10
130.816
20
-91.593
11
130.816
21
-91.486
0
LINE
8
Black
10
130.816
20
-91.486
11
129.896
21
-91.486
0
LINE
8
Black
10
129.896
20
-91.486
11
129.896
21
-91.6981
0
LINE
8
Black
10
129.896
20
-91.6981
11
129.807
21
-91.9445
0
LINE
8
Black
10
129.807
20
-91.9445
11
129.638
21
-92.1454
0
LINE
8
Black
10
129.638
20
-92.1454
11
129.411
21
-92.2765
0
LINE
8
Black
10
129.411
20
-92.2765
11
129.153
21
-92.322
0
LINE
8
Black
10
129.153
20
-92.322
11
127.641
21
-92.322
0
LINE
8
Black
10
127.641
20
-92.322
11
127.383
21
-92.2765
0
LINE
8
Black
10
127.383
20
-92.2765
11
127.156
21
-92.1454
0
LINE
8
Black
10
127.156
20
-92.1454
11
126.987
21
-91.9445
0
LINE
8
Black
10
126.987
20
-91.9445
11
126.898
21
-91.6981
0
LINE
8
Black
10
126.898
20
-91.6981
11
126.898
21
-91.4359
0
LINE
8
Black
10
126.898
20
-91.4359
11
126.987
21
-91.1895
0
LINE
8
Black
10
126.987
20
-91.1895
11
127.156
21
-90.9886
0
LINE
8
Black
10
127.156
20
-90.9886
11
127.383
21
-90.8575
0
LINE
8
Black
10
127.383
20
-90.8575
11
127.641
21
-90.812
0
LINE
8
Black
10
127.641
20
-90.812
11
129.153
21
-90.812
0
LINE
8
Black
10
129.153
20
-90.812
11
129.411
21
-90.8575
0
LINE
8
Black
10
129.411
20
-90.8575
11
129.46
21
-90.886
0
LINE
8
Black
10
129.46
20
-90.886
11
130.816
21
-90.886
0
LINE
8
Black
10
130.816
20
-90.886
11
130.816
21
-90.393
0
LINE
8
Black
10
130.816
20
-90.393
11
131.566
21
-90.393
0
LINE
8
Black
10
131.566
20
-90.393
11
131.566
21
-90.886
0
LINE
8
Black
10
112.008
20
-90.886
11
113.051
21
-90.886
0
LINE
8
Black
10
113.051
20
-90.886
11
113.051
21
-90.861
0
LINE
8
Black
10
113.051
20
-90.861
11
114.111
21
-90.861
0
LINE
8
Black
10
114.111
20
-90.861
11
114.111
21
-91.511
0
LINE
8
Black
10
114.111
20
-91.511
11
113.051
21
-91.511
0
LINE
8
Black
10
113.051
20
-91.511
11
113.051
21
-91.486
0
LINE
8
Black
10
113.051
20
-91.486
11
112.008
21
-91.486
0
LINE
8
Black
10
112.008
20
-91.486
11
112.008
21
-91.593
0
LINE
8
Black
10
112.008
20
-91.593
11
111.258
21
-91.593
0
LINE
8
Black
10
111.258
20
-91.593
11
111.258
21
-91.486
0
LINE
8
Black
10
111.258
20
-91.486
11
110.338
21
-91.486
0
LINE
8
Black
10
110.338
20
-91.486
11
110.338
21
-91.6981
0
LINE
8
Black
10
110.338
20
-91.6981
11
110.249
21
-91.9445
0
LINE
8
Black
10
110.249
20
-91.9445
11
110.08
21
-92.1454
0
LINE
8
Black
10
110.08
20
-92.1454
11
109.853
21
-92.2765
0
LINE
8
Black
10
109.853
20
-92.2765
11
109.595
21
-92.322
0
LINE
8
Black
10
109.595
20
-92.322
11
108.083
21
-92.322
0
LINE
8
Black
10
108.083
20
-92.322
11
107.825
21
-92.2765
0
LINE
8
Black
10
107.825
20
-92.2765
11
107.598
21
-92.1454
0
LINE
8
Black
10
107.598
20
-92.1454
11
107.429
21
-91.9445
0
LINE
8
Black
10
107.429
20
-91.9445
11
107.34
21
-91.6981
0
LINE
8
Black
10
107.34
20
-91.6981
11
107.34
21
-91.4359
0
LINE
8
Black
10
107.34
20
-91.4359
11
107.429
21
-91.1895
0
LINE
8
Black
10
107.429
20
-91.1895
11
107.598
21
-90.9886
0
LINE
8
Black
10
107.598
20
-90.9886
11
107.825
21
-90.8575
0
LINE
8
Black
10
107.825
20
-90.8575
11
108.083
21
-90.812
0
LINE
8
Black
10
108.083
20
-90.812
11
109.595
21
-90.812
0
LINE
8
Black
10
109.595
20
-90.812
11
109.853
21
-90.8575
0
LINE
8
Black
10
109.853
20
-90.8575
11
109.902
21
-90.886
0
LINE
8
Black
10
109.902
20
-90.886
11
111.258
21
-90.886
0
LINE
8
Black
10
111.258
20
-90.886
11
111.258
21
-90.393
0
LINE
8
Black
10
111.258
20
-90.393
11
112.008
21
-90.393
0
LINE
8
Black
10
112.008
20
-90.393
11
112.008
21
-90.886
0
LINE
8
Black
10
142.111
20
-90.7305
11
142.338
21
-90.8616
0
LINE
8
Black
10
142.338
20
-90.8616
11
142.507
21
-91.0625
0
LINE
8
Black
10
142.507
20
-91.0625
11
142.596
21
-91.3089
0
LINE
8
Black
10
142.596
20
-91.3089
11
142.596
21
-91.5711
0
LINE
8
Black
10
142.596
20
-91.5711
11
142.507
21
-91.8175
0
LINE
8
Black
10
142.507
20
-91.8175
11
142.338
21
-92.0184
0
LINE
8
Black
10
142.338
20
-92.0184
11
142.111
21
-92.1495
0
LINE
8
Black
10
142.111
20
-92.1495
11
141.853
21
-92.195
0
LINE
8
Black
10
141.853
20
-92.195
11
140.341
21
-92.195
0
LINE
8
Black
10
140.341
20
-92.195
11
140.083
21
-92.1495
0
LINE
8
Black
10
140.083
20
-92.1495
11
139.856
21
-92.0184
0
LINE
8
Black
10
139.856
20
-92.0184
11
139.687
21
-91.8175
0
LINE
8
Black
10
139.687
20
-91.8175
11
139.598
21
-91.5711
0
LINE
8
Black
10
139.598
20
-91.5711
11
139.598
21
-91.3089
0
LINE
8
Black
10
139.598
20
-91.3089
11
139.687
21
-91.0625
0
LINE
8
Black
10
139.687
20
-91.0625
11
139.856
21
-90.8616
0
LINE
8
Black
10
139.856
20
-90.8616
11
140.083
21
-90.7305
0
LINE
8
Black
10
140.083
20
-90.7305
11
140.341
21
-90.685
0
LINE
8
Black
10
140.341
20
-90.685
11
141.853
21
-90.685
0
LINE
8
Black
10
141.853
20
-90.685
11
142.111
21
-90.7305
0
LINE
8
Black
10
122.553
20
-90.7305
11
122.78
21
-90.8616
0
LINE
8
Black
10
122.78
20
-90.8616
11
122.949
21
-91.0625
0
LINE
8
Black
10
122.949
20
-91.0625
11
123.038
21
-91.3089
0
LINE
8
Black
10
123.038
20
-91.3089
11
123.038
21
-91.5711
0
LINE
8
Black
10
123.038
20
-91.5711
11
122.949
21
-91.8175
0
LINE
8
Black
10
122.949
20
-91.8175
11
122.78
21
-92.0184
0
LINE
8
Black
10
122.78
20
-92.0184
11
122.553
21
-92.1495
0
LINE
8
Black
10
122.553
20
-92.1495
11
122.295
21
-92.195
0
LINE
8
Black
10
122.295
20
-92.195
11
120.783
21
-92.195
0
LINE
8
Black
10
120.783
20
-92.195
11
120.525
21
-92.1495
0
LINE
8
Black
10
120.525
20
-92.1495
11
120.298
21
-92.0184
0
LINE
8
Black
10
120.298
20
-92.0184
11
120.129
21
-91.8175
0
LINE
8
Black
10
120.129
20
-91.8175
11
120.04
21
-91.5711
0
LINE
8
Black
10
120.04
20
-91.5711
11
120.04
21
-91.3089
0
LINE
8
Black
10
120.04
20
-91.3089
11
120.129
21
-91.0625
0
LINE
8
Black
10
120.129
20
-91.0625
11
120.298
21
-90.8616
0
LINE
8
Black
10
120.298
20
-90.8616
11
120.525
21
-90.7305
0
LINE
8
Black
10
120.525
20
-90.7305
11
120.783
21
-90.685
0
LINE
8
Black
10
120.783
20
-90.685
11
122.295
21
-90.685
0
LINE
8
Black
10
122.295
20
-90.685
11
122.553
21
-90.7305
0
LINE
8
Black
10
129.411
20
-88.3175
11
129.638
21
-88.4486
0
LINE
8
Black
10
129.638
20
-88.4486
11
129.807
21
-88.6495
0
LINE
8
Black
10
129.807
20
-88.6495
11
129.835
21
-88.727
0
LINE
8
Black
10
129.835
20
-88.727
11
130.816
21
-88.727
0
LINE
8
Black
10
130.816
20
-88.727
11
130.816
21
-88.493
0
LINE
8
Black
10
130.816
20
-88.493
11
131.566
21
-88.493
0
LINE
8
Black
10
131.566
20
-88.493
11
131.566
21
-88.727
0
LINE
8
Black
10
131.566
20
-88.727
11
131.93
21
-88.727
0
LINE
8
Black
10
131.93
20
-88.727
11
131.943
21
-88.7293
0
LINE
8
Black
10
131.943
20
-88.7293
11
131.956
21
-88.7281
0
LINE
8
Black
10
131.956
20
-88.7281
11
131.994
21
-88.7383
0
LINE
8
Black
10
131.994
20
-88.7383
11
132.033
21
-88.7451
0
LINE
8
Black
10
132.033
20
-88.7451
11
132.044
21
-88.7517
0
LINE
8
Black
10
132.044
20
-88.7517
11
132.057
21
-88.7551
0
LINE
8
Black
10
132.057
20
-88.7551
11
132.089
21
-88.7776
0
LINE
8
Black
10
132.089
20
-88.7776
11
132.123
21
-88.7972
0
LINE
8
Black
10
132.123
20
-88.7972
11
132.131
21
-88.8073
0
LINE
8
Black
10
132.131
20
-88.8073
11
132.142
21
-88.8149
0
LINE
8
Black
10
132.142
20
-88.8149
11
133.238
21
-89.911
0
LINE
8
Black
10
133.238
20
-89.911
11
133.669
21
-89.911
0
LINE
8
Black
10
133.669
20
-89.911
11
133.669
21
-90.561
0
LINE
8
Black
10
133.669
20
-90.561
11
132.609
21
-90.561
0
LINE
8
Black
10
132.609
20
-90.561
11
132.609
21
-90.1303
0
LINE
8
Black
10
132.609
20
-90.1303
11
131.806
21
-89.327
0
LINE
8
Black
10
131.806
20
-89.327
11
131.566
21
-89.327
0
LINE
8
Black
10
131.566
20
-89.327
11
131.566
21
-89.693
0
LINE
8
Black
10
131.566
20
-89.693
11
130.816
21
-89.693
0
LINE
8
Black
10
130.816
20
-89.693
11
130.816
21
-89.327
0
LINE
8
Black
10
130.816
20
-89.327
11
129.835
21
-89.327
0
LINE
8
Black
10
129.835
20
-89.327
11
129.807
21
-89.4045
0
LINE
8
Black
10
129.807
20
-89.4045
11
129.638
21
-89.6054
0
LINE
8
Black
10
129.638
20
-89.6054
11
129.411
21
-89.7365
0
LINE
8
Black
10
129.411
20
-89.7365
11
129.153
21
-89.782
0
LINE
8
Black
10
129.153
20
-89.782
11
127.641
21
-89.782
0
LINE
8
Black
10
127.641
20
-89.782
11
127.383
21
-89.7365
0
LINE
8
Black
10
127.383
20
-89.7365
11
127.156
21
-89.6054
0
LINE
8
Black
10
127.156
20
-89.6054
11
126.987
21
-89.4045
0
LINE
8
Black
10
126.987
20
-89.4045
11
126.898
21
-89.1581
0
LINE
8
Black
10
126.898
20
-89.1581
11
126.898
21
-88.8959
0
LINE
8
Black
10
126.898
20
-88.8959
11
126.987
21
-88.6495
0
LINE
8
Black
10
126.987
20
-88.6495
11
127.156
21
-88.4486
0
LINE
8
Black
10
127.156
20
-88.4486
11
127.383
21
-88.3175
0
LINE
8
Black
10
127.383
20
-88.3175
11
127.641
21
-88.272
0
LINE
8
Black
10
127.641
20
-88.272
11
129.153
21
-88.272
0
LINE
8
Black
10
129.153
20
-88.272
11
129.411
21
-88.3175
0
LINE
8
Black
10
109.853
20
-88.3175
11
110.08
21
-88.4486
0
LINE
8
Black
10
110.08
20
-88.4486
11
110.249
21
-88.6495
0
LINE
8
Black
10
110.249
20
-88.6495
11
110.277
21
-88.727
0
LINE
8
Black
10
110.277
20
-88.727
11
111.258
21
-88.727
0
LINE
8
Black
10
111.258
20
-88.727
11
111.258
21
-88.493
0
LINE
8
Black
10
111.258
20
-88.493
11
112.008
21
-88.493
0
LINE
8
Black
10
112.008
20
-88.493
11
112.008
21
-88.727
0
LINE
8
Black
10
112.008
20
-88.727
11
112.372
21
-88.727
0
LINE
8
Black
10
112.372
20
-88.727
11
112.385
21
-88.7293
0
LINE
8
Black
10
112.385
20
-88.7293
11
112.398
21
-88.7281
0
LINE
8
Black
10
112.398
20
-88.7281
11
112.436
21
-88.7383
0
LINE
8
Black
10
112.436
20
-88.7383
11
112.475
21
-88.7451
0
LINE
8
Black
10
112.475
20
-88.7451
11
112.486
21
-88.7517
0
LINE
8
Black
10
112.486
20
-88.7517
11
112.499
21
-88.7551
0
LINE
8
Black
10
112.499
20
-88.7551
11
112.531
21
-88.7776
0
LINE
8
Black
10
112.531
20
-88.7776
11
112.565
21
-88.7972
0
LINE
8
Black
10
112.565
20
-88.7972
11
112.573
21
-88.8073
0
LINE
8
Black
10
112.573
20
-88.8073
11
112.584
21
-88.8149
0
LINE
8
Black
10
112.584
20
-88.8149
11
113.68
21
-89.911
0
LINE
8
Black
10
113.68
20
-89.911
11
114.111
21
-89.911
0
LINE
8
Black
10
114.111
20
-89.911
11
114.111
21
-90.561
0
LINE
8
Black
10
114.111
20
-90.561
11
113.051
21
-90.561
0
LINE
8
Black
10
113.051
20
-90.561
11
113.051
21
-90.1303
0
LINE
8
Black
10
113.051
20
-90.1303
11
112.248
21
-89.327
0
LINE
8
Black
10
112.248
20
-89.327
11
112.008
21
-89.327
0
LINE
8
Black
10
112.008
20
-89.327
11
112.008
21
-89.693
0
LINE
8
Black
10
112.008
20
-89.693
11
111.258
21
-89.693
0
LINE
8
Black
10
111.258
20
-89.693
11
111.258
21
-89.327
0
LINE
8
Black
10
111.258
20
-89.327
11
110.277
21
-89.327
0
LINE
8
Black
10
110.277
20
-89.327
11
110.249
21
-89.4045
0
LINE
8
Black
10
110.249
20
-89.4045
11
110.08
21
-89.6054
0
LINE
8
Black
10
110.08
20
-89.6054
11
109.853
21
-89.7365
0
LINE
8
Black
10
109.853
20
-89.7365
11
109.595
21
-89.782
0
LINE
8
Black
10
109.595
20
-89.782
11
108.083
21
-89.782
0
LINE
8
Black
10
108.083
20
-89.782
11
107.825
21
-89.7365
0
LINE
8
Black
10
107.825
20
-89.7365
11
107.598
21
-89.6054
0
LINE
8
Black
10
107.598
20
-89.6054
11
107.429
21
-89.4045
0
LINE
8
Black
10
107.429
20
-89.4045
11
107.34
21
-89.1581
0
LINE
8
Black
10
107.34
20
-89.1581
11
107.34
21
-88.8959
0
LINE
8
Black
10
107.34
20
-88.8959
11
107.429
21
-88.6495
0
LINE
8
Black
10
107.429
20
-88.6495
11
107.598
21
-88.4486
0
LINE
8
Black
10
107.598
20
-88.4486
11
107.825
21
-88.3175
0
LINE
8
Black
10
107.825
20
-88.3175
11
108.083
21
-88.272
0
LINE
8
Black
10
108.083
20
-88.272
11
109.595
21
-88.272
0
LINE
8
Black
10
109.595
20
-88.272
11
109.853
21
-88.3175
0
LINE
8
Black
10
122.553
20
-88.1905
11
122.78
21
-88.3216
0
LINE
8
Black
10
122.78
20
-88.3216
11
122.949
21
-88.5225
0
LINE
8
Black
10
122.949
20
-88.5225
11
123.038
21
-88.7689
0
LINE
8
Black
10
123.038
20
-88.7689
11
123.038
21
-89.0311
0
LINE
8
Black
10
123.038
20
-89.0311
11
122.949
21
-89.2775
0
LINE
8
Black
10
122.949
20
-89.2775
11
122.78
21
-89.4784
0
LINE
8
Black
10
122.78
20
-89.4784
11
122.553
21
-89.6095
0
LINE
8
Black
10
122.553
20
-89.6095
11
122.295
21
-89.655
0
LINE
8
Black
10
122.295
20
-89.655
11
120.783
21
-89.655
0
LINE
8
Black
10
120.783
20
-89.655
11
120.525
21
-89.6095
0
LINE
8
Black
10
120.525
20
-89.6095
11
120.298
21
-89.4784
0
LINE
8
Black
10
120.298
20
-89.4784
11
120.129
21
-89.2775
0
LINE
8
Black
10
120.129
20
-89.2775
11
120.117
21
-89.243
0
LINE
8
Black
10
120.117
20
-89.243
11
118.56
21
-89.243
0
LINE
8
Black
10
118.56
20
-89.243
11
118.56
21
-89.543
0
LINE
8
Black
10
118.56
20
-89.543
11
117.66
21
-89.543
0
LINE
8
Black
10
117.66
20
-89.543
11
117.66
21
-88.343
0
LINE
8
Black
10
117.66
20
-88.343
11
118.56
21
-88.343
0
LINE
8
Black
10
118.56
20
-88.343
11
118.56
21
-88.643
0
LINE
8
Black
10
118.56
20
-88.643
11
120.086
21
-88.643
0
LINE
8
Black
10
120.086
20
-88.643
11
120.129
21
-88.5225
0
LINE
8
Black
10
120.129
20
-88.5225
11
120.298
21
-88.3216
0
LINE
8
Black
10
120.298
20
-88.3216
11
120.525
21
-88.1905
0
LINE
8
Black
10
120.525
20
-88.1905
11
120.783
21
-88.145
0
LINE
8
Black
10
120.783
20
-88.145
11
122.295
21
-88.145
0
LINE
8
Black
10
122.295
20
-88.145
11
122.553
21
-88.1905
0
LINE
8
Black
10
142.111
20
-88.1905
11
142.338
21
-88.3216
0
LINE
8
Black
10
142.338
20
-88.3216
11
142.507
21
-88.5225
0
LINE
8
Black
10
142.507
20
-88.5225
11
142.596
21
-88.7689
0
LINE
8
Black
10
142.596
20
-88.7689
11
142.596
21
-89.0311
0
LINE
8
Black
10
142.596
20
-89.0311
11
142.507
21
-89.2775
0
LINE
8
Black
10
142.507
20
-89.2775
11
142.338
21
-89.4784
0
LINE
8
Black
10
142.338
20
-89.4784
11
142.111
21
-89.6095
0
LINE
8
Black
10
142.111
20
-89.6095
11
141.853
21
-89.655
0
LINE
8
Black
10
141.853
20
-89.655
11
140.341
21
-89.655
0
LINE
8
Black
10
140.341
20
-89.655
11
140.083
21
-89.6095
0
LINE
8
Black
10
140.083
20
-89.6095
11
139.856
21
-89.4784
0
LINE
8
Black
10
139.856
20
-89.4784
11
139.687
21
-89.2775
0
LINE
8
Black
10
139.687
20
-89.2775
11
139.675
21
-89.243
0
LINE
8
Black
10
139.675
20
-89.243
11
138.118
21
-89.243
0
LINE
8
Black
10
138.118
20
-89.243
11
138.118
21
-89.543
0
LINE
8
Black
10
138.118
20
-89.543
11
137.218
21
-89.543
0
LINE
8
Black
10
137.218
20
-89.543
11
137.218
21
-88.343
0
LINE
8
Black
10
137.218
20
-88.343
11
138.118
21
-88.343
0
LINE
8
Black
10
138.118
20
-88.343
11
138.118
21
-88.643
0
LINE
8
Black
10
138.118
20
-88.643
11
139.644
21
-88.643
0
LINE
8
Black
10
139.644
20
-88.643
11
139.687
21
-88.5225
0
LINE
8
Black
10
139.687
20
-88.5225
11
139.856
21
-88.3216
0
LINE
8
Black
10
139.856
20
-88.3216
11
140.083
21
-88.1905
0
LINE
8
Black
10
140.083
20
-88.1905
11
140.341
21
-88.145
0
LINE
8
Black
10
140.341
20
-88.145
11
141.853
21
-88.145
0
LINE
8
Black
10
141.853
20
-88.145
11
142.111
21
-88.1905
0
CIRCLE
8
Black
10
130.302
20
-125.349
40
0.5
0
CIRCLE
8
Black
10
130.302
20
-122.809
40
0.5
0
CIRCLE
8
Black
10
130.175
20
-120.015
40
0.5
0
CIRCLE
8
Black
10
130.175
20
-117.475
40
0.5
0
CIRCLE
8
Black
10
141.224
20
-119.126
40
0.5
0
CIRCLE
8
Black
10
141.224
20
-121.666
40
0.5
0
CIRCLE
8
Black
10
141.224
20
-124.206
40
0.5
0
CIRCLE
8
Black
10
128.397
20
-94.107
40
0.5
0
CIRCLE
8
Black
10
128.397
20
-91.567
40
0.5
0
CIRCLE
8
Black
10
128.397
20
-89.027
40
0.5
0
CIRCLE
8
Black
10
141.097
20
-94.996
40
0.5
0
CIRCLE
8
Black
10
141.097
20
-97.536
40
0.5
0
CIRCLE
8
Black
10
141.097
20
-88.9
40
0.5
0
CIRCLE
8
Black
10
141.097
20
-91.44
40
0.5
0
CIRCLE
8
Black
10
108.839
20
-111.887
40
0.5
0
CIRCLE
8
Black
10
108.839
20
-109.347
40
0.5
0
CIRCLE
8
Black
10
121.539
20
-88.9
40
0.5
0
CIRCLE
8
Black
10
121.539
20
-91.44
40
0.5
0
CIRCLE
8
Black
10
130.175
20
-106.68
40
0.5
0
CIRCLE
8
Black
10
130.175
20
-104.14
40
0.5
0
CIRCLE
8
Black
10
121.539
20
-94.996
40
0.5
0
CIRCLE
8
Black
10
121.539
20
-97.536
40
0.5
0
CIRCLE
8
Black
10
130.175
20
-112.014
40
0.5
0
CIRCLE
8
Black
10
130.175
20
-109.474
40
0.5
0
CIRCLE
8
Black
10
108.839
20
-94.107
40
0.5
0
CIRCLE
8
Black
10
108.839
20
-91.567
40
0.5
0
CIRCLE
8
Black
10
108.839
20
-89.027
40
0.5
0
CIRCLE
8
Black
10
108.839
20
-117.221
40
0.5
0
CIRCLE
8
Black
10
108.839
20
-114.681
40
0.5
0
CIRCLE
8
Black
10
108.839
20
-106.807
40
0.5
0
CIRCLE
8
Black
10
108.839
20
-104.267
40
0.5
0
CIRCLE
8
Black
10
122.555
20
-109.22
40
0.5
0
CIRCLE
8
Black
10
122.555
20
-106.68
40
0.5
0
CIRCLE
8
Black
10
122.555
20
-104.14
40
0.5
0
CIRCLE
8
Black
10
122.555
20
-111.76
40
0.5
0
CIRCLE
8
Black
10
122.555
20
-114.3
40
0.5
0
CIRCLE
8
Black
10
122.555
20
-116.84
40
0.5
0
CIRCLE
8
Black
10
141.224
20
-105.791
40
0.5
0
CIRCLE
8
Black
10
141.224
20
-108.331
40
0.5
0
CIRCLE
8
Black
10
141.224
20
-110.871
40
0.5
0
CIRCLE
8
Black
10
117.983
20
-110.236
40
0.5
  0
ENDSEC
  0
EOF
